<?xml version="1.0" standalone="no"?>
<!DOCTYPE svg PUBLIC "-//W3C//DTD SVG 20010904//EN"
 "http://www.w3.org/TR/2001/REC-SVG-20010904/DTD/svg10.dtd">
<svg version="1.0" xmlns="http://www.w3.org/2000/svg"
 width="1365.000000pt" height="1024.000000pt" viewBox="0 0 1365.000000 1024.000000"
 preserveAspectRatio="xMidYMid meet">
<metadata>
Created by potrace 1.16, written by Peter Selinger 2001-2019
</metadata>
<g transform="translate(0.000000,1024.000000) scale(0.100000,-0.100000)"
fill="#000000" stroke="none">
<path d="M1985 9706 c-11 -7 -46 -21 -77 -31 -32 -10 -58 -22 -58 -28 0 -6 -3
-8 -6 -4 -4 3 -13 0 -21 -8 -8 -8 -23 -15 -34 -15 -11 0 -32 -11 -47 -25 -15
-14 -34 -25 -44 -25 -9 0 -23 -6 -30 -13 -15 -15 -121 -67 -137 -67 -6 0 -11
-4 -11 -8 0 -4 -31 -18 -70 -31 -38 -12 -70 -26 -70 -30 0 -5 -17 -16 -37 -24
-21 -8 -45 -24 -54 -34 -9 -10 -32 -33 -52 -51 -20 -18 -37 -39 -37 -48 0 -8
-6 -22 -14 -30 -8 -8 -18 -34 -22 -59 -3 -25 -10 -45 -15 -45 -5 0 -9 -22 -9
-50 0 -27 -4 -50 -8 -50 -4 0 -14 -16 -21 -35 -7 -19 -17 -35 -22 -35 -5 0 -9
-9 -9 -19 0 -11 -7 -26 -15 -34 -8 -8 -24 -34 -37 -58 -12 -24 -25 -46 -29
-49 -10 -7 -38 -94 -45 -140 -4 -22 -10 -40 -15 -40 -5 0 -9 -36 -9 -80 0 -44
4 -80 9 -80 4 0 11 -51 15 -112 15 -229 32 -369 47 -378 5 -4 12 -24 16 -46 3
-21 12 -43 20 -47 7 -4 13 -13 13 -18 0 -6 7 -17 15 -25 8 -9 15 -26 15 -40 0
-13 4 -24 9 -24 4 0 14 -20 21 -45 7 -25 17 -45 21 -45 5 0 9 -20 9 -45 0 -25
4 -45 9 -45 5 0 14 -61 21 -135 7 -74 16 -135 20 -135 4 0 9 -55 12 -123 3
-67 10 -131 16 -142 5 -11 20 -64 32 -118 13 -57 28 -101 36 -104 8 -3 11 -9
8 -14 -3 -5 -1 -9 4 -9 5 0 15 -13 22 -30 7 -16 22 -40 34 -53 11 -13 28 -34
36 -46 8 -11 20 -21 27 -21 7 0 13 -7 13 -15 0 -8 7 -15 15 -15 8 0 15 -7 15
-15 0 -8 6 -15 13 -15 6 0 26 -13 43 -29 16 -16 40 -32 52 -35 12 -4 22 -11
22 -15 0 -4 21 -19 48 -32 26 -13 49 -27 52 -31 3 -3 57 -14 120 -23 112 -16
151 -27 178 -52 7 -7 18 -13 23 -13 5 0 9 -5 9 -11 0 -7 9 -20 21 -30 12 -10
23 -35 26 -58 3 -23 12 -46 19 -52 8 -6 14 -20 14 -30 0 -10 5 -21 10 -24 6
-3 10 -13 10 -21 0 -9 16 -35 35 -58 19 -24 35 -47 35 -52 0 -5 12 -18 27 -29
14 -11 32 -26 39 -32 7 -7 16 -13 21 -13 5 0 20 -13 33 -30 14 -16 30 -29 36
-30 17 0 74 -58 74 -75 0 -8 4 -15 9 -15 24 0 42 -76 53 -229 6 -89 15 -161
20 -161 4 0 8 -11 8 -24 0 -27 39 -158 49 -166 9 -6 42 -77 46 -99 2 -9 4 -16
5 -16 1 0 4 -34 5 -75 2 -44 10 -88 19 -105 9 -16 19 -47 22 -67 4 -21 10 -38
14 -38 18 0 17 -30 -1 -51 -10 -12 -19 -26 -19 -31 0 -4 -6 -8 -14 -8 -8 0
-20 -14 -28 -30 -7 -17 -16 -30 -19 -30 -4 0 -10 -12 -14 -27 -3 -15 -11 -30
-15 -33 -21 -13 -42 -135 -37 -210 4 -76 25 -160 39 -160 5 0 8 -7 8 -16 0 -9
10 -30 22 -47 26 -37 139 -147 151 -147 4 0 15 -16 23 -35 8 -19 18 -35 23
-35 14 0 22 -102 10 -145 -6 -22 -10 -96 -11 -165 0 -75 -4 -130 -11 -138 -13
-16 -22 -169 -13 -206 7 -30 26 -35 26 -7 0 11 4 22 9 26 6 3 6 -7 0 -27 -12
-44 -11 -54 3 -40 7 7 23 13 37 13 22 2 23 2 5 6 -16 3 -20 9 -17 24 6 23 23
26 23 4 0 -13 6 -11 29 6 16 12 34 19 39 15 6 -3 12 1 14 11 3 14 5 15 18 2 9
-8 22 -15 29 -17 7 -2 25 -16 40 -32 14 -17 31 -30 39 -30 7 0 10 -4 7 -10 -3
-5 -14 -10 -25 -10 -10 0 -21 -7 -24 -16 -10 -25 -7 -54 5 -54 6 0 8 -7 5 -16
-5 -14 -4 -15 9 -4 12 10 15 10 15 -3 0 -8 6 -20 14 -26 16 -13 31 -67 47
-169 6 -40 17 -79 25 -87 8 -7 14 -21 14 -30 0 -15 26 -32 36 -23 2 3 -5 16
-16 31 -11 14 -20 36 -20 50 0 14 -5 27 -11 29 -8 3 -14 43 -17 108 l-5 103
23 -21 c13 -12 27 -22 30 -22 4 0 10 -32 14 -72 4 -40 12 -75 18 -79 6 -4 13
-29 16 -57 3 -39 9 -53 27 -62 13 -7 26 -25 29 -41 3 -16 11 -29 17 -29 7 0
32 -20 56 -45 23 -25 48 -45 53 -45 6 0 8 -4 5 -10 -3 -5 2 -10 11 -10 10 0
41 -24 70 -54 28 -30 55 -52 58 -49 3 4 6 1 6 -5 0 -6 8 -13 18 -17 11 -3 24
-16 30 -29 10 -24 48 -44 59 -32 3 3 0 12 -7 21 -8 10 -9 15 -1 15 6 0 11 -5
11 -11 0 -6 7 -9 15 -6 8 4 17 2 21 -4 3 -6 -3 -13 -15 -16 -21 -5 -30 -23
-11 -23 6 0 10 -6 10 -14 0 -8 13 -28 28 -44 19 -20 26 -35 21 -44 -7 -10 -9
-10 -9 2 0 9 -9 22 -20 30 -11 8 -20 19 -20 25 0 12 -62 63 -105 86 -64 34
-81 45 -116 71 -20 16 -41 28 -47 28 -7 0 -12 4 -12 9 0 5 -11 12 -24 15 -14
3 -27 15 -31 26 -3 10 -14 22 -25 25 -10 3 -26 18 -35 32 -10 15 -28 36 -41
48 -13 12 -24 27 -24 34 0 6 -7 11 -15 11 -21 0 -19 -12 5 -33 11 -9 20 -23
20 -31 0 -8 8 -17 18 -21 9 -3 31 -23 47 -44 17 -21 45 -49 64 -62 19 -13 40
-30 48 -37 19 -20 114 -82 124 -82 5 0 9 -7 9 -15 0 -8 7 -15 15 -15 8 0 15
-4 15 -9 0 -20 87 -101 108 -101 16 0 22 -6 22 -21 0 -12 -4 -17 -11 -14 -19
12 15 -37 53 -76 21 -22 42 -39 47 -39 5 0 13 -9 16 -20 4 -11 10 -18 14 -15
7 4 20 -4 68 -45 7 -5 16 -10 21 -10 5 0 20 -9 33 -21 13 -11 34 -29 47 -40
12 -10 28 -19 36 -19 14 0 16 -23 4 -35 -3 -3 -32 -6 -64 -6 -80 -1 -93 -14
-53 -50 27 -24 29 -30 16 -35 -10 -3 -17 -12 -17 -19 0 -24 -21 -27 -39 -6
-17 19 -41 28 -41 16 0 -11 67 -75 79 -75 6 0 11 -4 11 -9 0 -16 66 -51 94
-51 15 0 29 -6 32 -14 3 -8 12 -12 20 -9 7 3 17 -2 20 -11 4 -11 19 -16 50
-16 24 0 44 -4 44 -10 0 -5 14 -10 30 -10 17 0 30 -4 30 -10 0 -5 16 -10 35
-10 36 0 85 -18 85 -31 0 -4 20 -17 45 -29 25 -12 45 -25 45 -30 0 -4 12 -12
28 -18 25 -8 28 -16 40 -88 6 -43 16 -80 21 -83 5 -4 13 -19 17 -35 4 -16 14
-37 23 -47 32 -35 41 -48 41 -59 0 -5 5 -10 10 -10 6 0 10 -7 10 -15 0 -8 9
-15 19 -15 10 0 21 -7 25 -15 3 -8 12 -15 21 -15 8 0 15 -4 15 -10 0 -5 11
-12 25 -16 14 -3 25 -12 25 -20 0 -8 7 -14 15 -14 9 0 18 -7 21 -15 4 -8 14
-15 23 -15 10 0 27 -9 39 -20 12 -11 26 -20 32 -20 5 0 10 -4 10 -10 0 -5 7
-10 15 -10 8 0 24 -9 35 -20 11 -11 27 -20 35 -20 8 0 15 -4 15 -10 0 -5 8
-10 17 -10 31 0 123 -24 123 -32 0 -5 34 -8 75 -8 41 0 75 3 75 8 0 8 92 32
122 32 9 0 18 5 20 12 5 15 61 15 93 0 14 -7 37 -18 53 -24 15 -7 33 -19 40
-25 7 -7 26 -13 41 -13 15 0 36 -9 46 -20 10 -11 26 -20 36 -20 9 0 20 -6 22
-12 4 -10 6 -10 6 0 1 6 7 12 15 12 8 0 17 -6 19 -12 4 -10 8 -9 16 2 8 12 6
16 -10 18 -13 2 -19 9 -15 18 3 8 -1 14 -9 14 -8 0 -15 9 -15 20 0 11 -7 20
-15 20 -8 0 -15 7 -15 15 0 8 -4 15 -10 15 -5 0 -10 7 -10 15 0 9 -11 20 -25
27 -13 6 -22 15 -19 19 8 14 44 10 50 -5 3 -8 17 -17 32 -21 15 -3 36 -17 47
-29 11 -13 30 -26 41 -30 12 -4 32 -15 44 -26 13 -11 34 -20 47 -20 12 0 23
-4 23 -10 0 -5 7 -10 15 -10 8 0 20 -9 27 -20 8 -12 24 -20 40 -20 18 0 40
-11 60 -30 23 -23 40 -30 69 -30 36 0 79 -28 79 -52 0 -4 9 -8 19 -8 11 0 26
-7 34 -15 8 -7 28 -17 43 -20 74 -16 114 -28 114 -36 0 -5 6 -9 14 -9 8 0 16
-5 18 -10 5 -16 106 -43 181 -47 37 -3 67 -9 67 -14 0 -14 38 -11 43 4 3 9 7
9 20 -2 11 -9 17 -10 17 -2 0 6 13 11 29 11 17 0 32 4 36 9 3 6 18 6 38 0 41
-12 117 -12 117 0 0 12 83 -7 92 -22 9 -14 196 -16 206 -2 7 11 62 33 100 42
12 3 22 9 22 12 0 9 78 61 91 61 4 0 13 9 19 20 6 11 19 20 30 20 10 0 21 4
24 9 9 13 89 51 110 51 9 0 38 12 63 26 45 25 100 45 155 58 15 3 33 12 40 19
7 8 30 16 50 20 32 5 36 3 31 -11 -6 -15 -5 -16 13 -2 10 8 23 21 27 28 11 17
47 15 47 -3 0 -10 10 -15 30 -15 18 0 30 5 30 13 0 34 101 39 112 6 7 -20 70
-14 109 10 18 11 42 21 52 21 12 0 17 8 17 28 0 20 7 33 25 42 14 7 25 17 25
22 0 4 20 8 44 8 25 0 48 4 51 10 9 14 55 12 55 -2 0 -9 4 -8 10 2 8 12 13 13
30 3 23 -15 97 -17 102 -3 4 11 188 19 273 11 53 -5 61 -9 73 -33 7 -16 19
-28 26 -28 8 0 19 -13 26 -30 7 -16 21 -32 31 -35 10 -4 19 -13 19 -21 0 -8
13 -17 30 -21 17 -3 30 -9 30 -14 0 -5 7 -9 15 -9 8 0 15 -3 15 -7 0 -5 12 -9
27 -10 15 0 29 -6 31 -12 2 -7 34 -11 83 -11 46 0 79 -4 79 -10 0 -5 11 -10
24 -10 31 0 86 -20 86 -31 0 -5 11 -9 24 -9 14 0 31 -6 38 -13 7 -7 21 -16 31
-20 9 -3 17 -11 17 -17 0 -5 6 -10 13 -10 13 -1 57 -34 57 -45 0 -3 14 -18 30
-32 17 -13 30 -33 30 -44 0 -10 4 -19 8 -19 5 0 15 -12 22 -27 36 -77 45 -93
52 -93 5 0 8 -6 8 -13 0 -7 9 -19 20 -27 11 -8 20 -20 20 -28 0 -7 8 -16 18
-19 9 -4 24 -15 33 -25 9 -10 21 -18 28 -18 6 0 11 -4 11 -8 0 -5 17 -14 39
-20 21 -7 44 -19 51 -27 7 -8 19 -15 26 -15 22 0 87 -40 111 -69 13 -14 26
-40 29 -58 3 -18 12 -37 19 -43 8 -6 16 -29 20 -51 6 -33 11 -39 31 -39 27 0
31 12 9 30 -8 7 -15 19 -15 26 0 8 -4 14 -10 14 -5 0 -7 7 -3 16 3 8 1 25 -5
37 -12 26 -25 59 -26 69 -3 21 -50 66 -92 88 -27 14 -50 28 -52 33 -2 4 -12 7
-23 7 -29 0 -126 56 -167 97 -39 39 -50 55 -77 113 -9 19 -21 42 -26 50 -9 15
-13 25 -30 70 -14 37 -106 131 -129 133 -11 1 -20 4 -20 8 0 10 -83 49 -103
49 -9 0 -17 5 -17 10 0 6 -24 10 -52 10 -80 0 -220 18 -232 30 -5 5 -20 10
-32 10 -12 0 -37 13 -55 30 -19 16 -41 32 -49 35 -9 3 -24 18 -33 35 -10 16
-25 36 -34 45 -8 9 -13 18 -11 21 9 8 98 -20 98 -31 0 -19 53 -62 85 -70 16
-3 33 -11 36 -17 3 -5 25 -12 48 -15 22 -3 41 -9 41 -13 0 -4 37 -10 81 -13
45 -3 85 -9 88 -14 3 -4 31 -21 61 -36 102 -52 125 -67 142 -87 9 -11 19 -20
22 -20 9 0 90 -80 80 -80 -5 0 -1 -5 8 -11 10 -5 18 -14 18 -20 0 -5 8 -19 18
-30 11 -11 25 -38 32 -60 8 -22 22 -45 32 -50 10 -5 18 -14 18 -19 0 -19 78
-88 126 -111 27 -13 51 -27 54 -31 3 -4 24 -10 45 -13 22 -2 41 -9 43 -15 2
-5 10 -10 18 -10 8 0 14 -5 14 -10 0 -6 11 -16 25 -22 25 -11 68 -89 95 -172
7 -22 21 -49 31 -60 11 -11 19 -23 19 -28 0 -4 10 -8 21 -8 20 0 21 1 5 25
-21 32 -14 32 18 0 19 -19 35 -25 71 -25 25 0 45 3 45 8 0 4 -19 16 -42 28
-24 12 -42 26 -40 32 1 7 -5 12 -14 12 -9 0 -14 5 -12 12 2 6 -4 20 -14 30
-11 11 -18 33 -18 56 0 20 -9 52 -20 70 -11 18 -20 40 -20 49 0 9 -10 27 -22
40 -12 13 -17 23 -10 23 6 0 19 -11 30 -25 11 -14 24 -25 30 -25 9 0 23 -33
54 -125 18 -56 68 -115 96 -115 12 0 10 4 -7 13 -13 6 -29 21 -35 32 -6 11
-13 22 -16 25 -17 17 -30 54 -30 85 0 19 -4 35 -10 35 -5 0 -10 9 -10 19 0 11
-4 23 -10 26 -20 12 -10 26 10 15 11 -6 18 -15 15 -20 -3 -4 2 -15 10 -23 8
-9 15 -25 15 -36 0 -11 7 -26 15 -35 8 -8 15 -19 15 -24 0 -6 14 -24 30 -42
49 -53 131 -58 181 -11 13 12 28 21 34 21 7 0 20 10 31 21 21 24 94 60 106 53
4 -3 8 0 8 5 0 6 18 11 40 11 22 0 40 5 40 10 0 21 -156 -18 -189 -47 -56 -50
-68 -59 -94 -70 -34 -16 -74 -16 -114 -3 -32 11 -67 69 -79 128 -4 18 -10 32
-14 32 -5 0 -7 8 -5 17 4 23 -19 60 -63 101 -29 27 -32 32 -14 32 11 0 22 -6
25 -14 3 -7 17 -13 32 -13 l26 0 -21 19 c-12 11 -19 22 -17 24 7 7 87 -29 87
-39 0 -5 9 -6 20 -2 15 5 18 3 14 -9 -4 -10 -1 -16 8 -16 10 0 15 11 16 31 1
29 -2 31 -26 26 -15 -3 -36 -1 -47 3 -19 8 -19 9 3 9 26 1 30 27 5 34 -10 3 1
5 25 6 23 0 42 6 42 11 0 6 -19 11 -42 12 -41 1 -40 2 12 8 51 6 53 7 30 17
-22 10 -19 12 33 12 31 1 57 6 57 11 0 6 -5 10 -11 10 -5 0 -7 5 -3 11 4 7 24
9 51 6 30 -3 43 -1 40 7 -4 12 -15 12 -102 1 -33 -4 -57 -5 -54 -1 3 3 19 8
36 10 36 4 93 28 93 38 0 5 24 9 53 9 28 1 41 4 28 6 -20 4 -17 8 25 29 43 20
45 23 22 24 -15 0 -30 5 -33 10 -8 13 41 13 66 0 13 -8 19 -7 19 0 0 6 -7 13
-15 16 -18 7 -20 28 -2 21 6 -2 20 0 30 5 14 7 16 13 7 22 -12 15 -3 49 11 40
5 -3 9 -1 9 5 0 5 6 11 13 14 6 2 3 3 -8 1 -19 -3 -19 -2 3 16 12 10 22 23 22
28 0 6 12 15 27 20 l28 10 -30 2 c-29 1 -29 1 -6 11 23 9 23 10 6 29 -18 20
-18 21 1 35 10 8 25 15 32 15 7 0 10 4 7 10 -4 6 8 10 29 10 19 0 36 4 38 10
2 5 26 12 53 15 28 3 61 8 75 11 14 3 44 7 67 10 24 2 58 6 75 10 18 3 56 7
84 9 48 3 77 14 114 41 8 7 30 9 49 7 23 -4 29 -8 20 -14 -11 -7 -10 -9 3 -9
11 0 15 -5 12 -14 -3 -9 3 -17 17 -21 12 -4 31 -16 42 -26 20 -18 21 -18 34 1
18 25 24 25 53 0 13 -11 36 -20 53 -20 22 0 28 -4 23 -15 -7 -20 -3 -19 40 10
20 14 40 22 45 19 14 -9 0 -24 -16 -17 -8 3 -15 1 -15 -4 0 -5 20 -10 45 -12
28 -1 45 2 45 9 0 6 5 8 10 5 14 -9 -5 -32 -33 -41 -21 -7 -57 -37 -105 -86
-15 -16 -32 -28 -39 -28 -7 0 -13 -7 -13 -15 0 -16 16 -21 22 -6 2 5 12 11 23
13 11 1 23 8 27 13 5 6 8 6 8 -2 0 -6 9 -9 20 -6 35 9 21 -6 -25 -28 -25 -12
-43 -24 -40 -29 2 -4 -7 -12 -20 -18 -14 -7 -25 -16 -25 -22 0 -6 -4 -9 -9 -6
-5 3 -21 -6 -35 -19 -15 -14 -31 -25 -37 -25 -5 0 -9 -4 -9 -8 0 -5 -14 -8
-30 -7 -17 1 -28 0 -26 -3 8 -7 -21 -32 -37 -32 -9 0 -17 -5 -19 -11 -3 -8
-15 -6 -38 5 -30 14 -32 15 -15 1 17 -14 18 -17 5 -25 -8 -5 -18 -10 -22 -10
-3 0 -19 -13 -35 -28 -15 -16 -33 -27 -40 -25 -6 2 -14 -5 -18 -16 -3 -11 -15
-23 -26 -26 -10 -4 -19 -13 -19 -21 0 -8 -8 -23 -17 -33 -33 -36 -44 -51 -38
-51 4 0 -5 -14 -19 -31 -14 -17 -26 -37 -26 -45 0 -8 -7 -14 -15 -14 -9 0 -20
-10 -26 -23 -10 -22 -72 -69 -98 -73 -8 -2 -17 -7 -20 -12 -10 -16 -49 -32
-76 -32 -14 0 -28 -7 -32 -16 -4 -12 -14 -14 -34 -10 -16 3 -29 2 -29 -3 0 -5
-20 -14 -45 -21 -25 -7 -45 -16 -45 -20 0 -5 -13 -13 -30 -19 -16 -5 -30 -15
-30 -20 0 -6 -7 -11 -15 -11 -8 0 -15 -5 -15 -11 0 -5 -4 -7 -10 -4 -5 3 -10
1 -10 -5 0 -6 -5 -8 -10 -5 -6 3 -13 -1 -16 -10 -4 -9 -24 -23 -45 -32 -22 -8
-39 -19 -39 -24 0 -14 84 -11 99 3 11 10 14 10 18 1 7 -19 53 -16 72 5 9 10
31 27 49 37 17 11 32 22 32 26 0 3 19 12 43 19 23 8 49 19 57 26 8 6 31 15 50
19 39 8 130 54 130 66 0 4 8 10 19 14 17 5 55 33 73 52 4 5 21 23 37 42 17 18
38 51 48 72 9 22 20 39 25 39 4 0 14 13 22 28 18 35 62 81 98 105 16 10 25 23
22 31 -4 11 0 13 15 9 12 -3 28 0 36 7 8 7 15 9 15 5 0 -4 6 -2 13 4 8 6 16 9
19 6 3 -3 11 1 18 10 7 8 19 15 27 15 7 0 16 7 19 15 4 8 11 12 16 9 6 -4 8 1
4 14 -4 13 -1 22 8 25 10 4 13 1 9 -9 -3 -9 2 -14 15 -14 11 0 22 6 25 12 3 7
22 22 43 33 22 11 41 22 44 26 3 3 26 20 52 37 25 17 48 36 50 40 5 13 129 72
150 72 16 0 17 -3 7 -21 -6 -12 -20 -24 -30 -26 -10 -3 -19 -9 -19 -14 0 -5
-6 -9 -14 -9 -8 0 -16 -3 -18 -7 -4 -9 -81 -63 -90 -63 -4 0 -22 -13 -40 -30
-18 -16 -38 -30 -45 -30 -7 0 -13 -4 -13 -8 0 -9 -28 -25 -178 -103 -51 -27
-99 -49 -107 -49 -7 0 -15 -4 -17 -9 -1 -5 -28 -35 -58 -68 -30 -32 -64 -76
-75 -98 -64 -126 -205 -236 -380 -296 -22 -8 -42 -16 -45 -19 -3 -3 -22 -14
-43 -24 -43 -22 -48 -36 -12 -36 14 0 25 4 25 8 0 8 69 42 84 42 4 0 14 7 22
15 9 8 29 15 45 15 16 0 29 4 29 10 0 5 11 12 25 16 13 3 29 12 36 20 6 8 18
14 25 14 19 0 154 129 154 147 0 7 5 13 11 13 5 0 16 15 24 32 7 18 23 44 34
58 32 39 35 43 50 71 7 15 33 36 57 48 24 13 44 27 44 32 0 5 11 9 25 9 13 0
28 6 32 13 4 8 34 24 66 37 31 13 57 27 57 32 0 4 5 8 12 8 6 0 26 11 44 25
18 14 36 25 39 25 4 0 13 7 21 15 9 8 24 15 35 15 10 0 19 7 19 15 0 8 7 15
15 15 8 0 15 5 15 10 0 6 7 10 15 10 7 0 18 6 22 13 4 7 19 18 33 25 52 25 71
41 101 85 3 4 21 11 40 13 19 3 50 9 69 15 19 5 47 9 62 9 31 0 37 13 28 56
-9 39 8 64 44 64 14 0 26 5 26 10 0 6 11 10 25 10 35 0 125 53 125 74 0 7 -63
-13 -69 -22 -3 -5 -36 -19 -73 -31 -37 -13 -70 -27 -73 -32 -13 -20 -22 -7
-21 29 2 36 3 37 51 46 28 6 52 13 55 16 3 4 28 17 57 31 50 23 71 50 67 89
-1 8 -2 31 -3 50 l-1 35 -20 -33 c-14 -22 -26 -32 -36 -28 -8 3 -13 2 -10 -2
8 -13 -23 -45 -39 -39 -8 4 -15 2 -15 -3 0 -6 -9 -10 -20 -10 -11 0 -20 -5
-20 -11 0 -6 -7 -8 -16 -5 -8 3 -12 2 -9 -3 6 -11 -1 -16 -36 -24 -25 -6 -27
-4 -33 36 -4 23 -10 69 -13 102 -3 33 -9 67 -13 75 -7 13 -18 88 -25 165 -1
11 3 28 9 37 8 14 6 21 -9 33 -18 14 -16 14 35 12 30 -2 65 -9 77 -15 12 -7
30 -12 41 -12 28 0 70 -53 83 -104 14 -58 -3 -142 -31 -151 -11 -3 -22 -14
-25 -25 -3 -10 -16 -21 -28 -24 -12 -3 -31 -12 -42 -20 -17 -13 -18 -15 -3
-16 9 0 23 7 32 15 8 8 18 15 23 15 16 0 83 70 93 96 24 62 9 135 -37 182 -7
7 -13 16 -13 20 0 4 -17 18 -38 32 -54 36 -67 50 -48 50 8 0 27 -12 41 -26 16
-16 33 -24 48 -21 19 3 20 4 5 11 -10 5 -37 26 -60 47 l-43 39 33 -12 c17 -7
32 -16 32 -20 0 -4 7 -5 15 -2 8 4 15 1 15 -5 0 -6 5 -11 11 -11 13 0 74 -60
62 -60 -5 0 -1 -5 7 -10 12 -7 16 -39 21 -137 5 -106 6 -92 5 78 -1 114 -4
202 -8 196 -8 -14 -38 9 -38 29 0 8 -11 19 -24 25 -26 12 -41 45 -24 55 5 3
16 -3 24 -15 9 -12 28 -28 45 -36 l29 -16 0 31 c0 17 -8 40 -19 51 -21 23 -31
111 -31 280 0 67 -4 110 -11 115 -6 3 -9 24 -7 45 2 21 0 40 -4 41 -5 2 -11
47 -15 101 -3 53 -10 97 -15 97 -4 0 -8 7 -8 15 0 9 -6 26 -14 38 -8 12 -18
45 -22 72 -4 31 -14 55 -25 63 -11 7 -19 20 -19 28 0 8 -3 14 -8 14 -7 0 -25
29 -37 62 -4 9 -16 19 -27 21 -14 4 -19 11 -15 21 4 9 2 16 -3 16 -15 0 -50
38 -50 54 0 8 -6 21 -12 28 -25 26 -58 114 -58 154 0 13 -4 24 -9 24 -5 0 -11
19 -15 43 -12 85 -50 272 -56 277 -3 3 -15 42 -25 88 -10 46 -27 92 -37 104
-10 12 -18 29 -18 38 0 9 -11 22 -25 28 -14 7 -28 19 -32 29 -8 21 -40 53 -53
53 -5 0 -10 3 -10 8 0 4 -9 12 -19 17 -11 6 -35 18 -55 29 -20 10 -36 22 -36
27 0 5 -9 9 -20 9 -27 0 -40 29 -40 89 0 28 -4 51 -10 51 -5 0 -10 7 -10 15 0
8 -3 15 -8 15 -18 0 -35 50 -39 114 -2 39 -7 73 -12 76 -4 3 -11 17 -15 33 -3
15 -11 27 -16 27 -6 0 -10 9 -10 19 0 11 -8 22 -18 26 -11 3 -28 23 -38 45
-10 22 -22 40 -26 40 -5 0 -8 11 -8 25 0 31 -49 158 -66 167 -6 4 -15 24 -18
43 -4 19 -18 47 -31 61 -15 16 -25 39 -25 55 0 16 -4 29 -10 29 -5 0 -10 11
-10 24 0 14 -7 31 -15 39 -7 8 -17 26 -21 41 -5 20 0 32 25 57 17 17 31 35 31
40 0 5 4 9 8 9 5 0 23 23 41 50 18 28 36 50 40 50 4 0 18 33 31 73 14 39 28
74 32 77 14 11 28 96 28 177 0 89 -18 233 -29 233 -4 0 -13 30 -20 68 -17 90
-43 196 -51 202 -4 3 -18 48 -31 100 -13 52 -27 97 -30 100 -4 3 -9 16 -12 30
-3 14 -4 1 -2 -29 2 -29 9 -59 15 -66 6 -7 20 -50 31 -96 12 -46 25 -86 29
-89 8 -6 10 -13 42 -190 13 -69 26 -126 30 -128 11 -5 10 -236 -1 -247 -4 -6
-14 -32 -21 -60 -16 -64 -42 -125 -52 -125 -4 0 -8 -7 -8 -15 0 -8 -3 -15 -8
-15 -4 0 -13 -12 -19 -27 -14 -32 -100 -123 -115 -123 -15 0 -3 91 13 101 8 5
26 6 41 3 26 -5 26 -4 21 37 -4 30 -2 45 9 53 8 6 25 45 38 86 12 41 27 79 32
85 12 13 10 255 -2 255 -5 0 -10 15 -10 34 0 19 -9 80 -20 136 -11 56 -20 110
-20 121 0 10 -4 19 -10 19 -5 0 -10 8 -10 18 0 14 -2 15 -10 2 -5 -8 -5 -17
-1 -20 5 -3 11 -18 14 -35 25 -140 37 -215 37 -242 0 -18 5 -33 10 -33 6 0 10
-45 10 -115 0 -63 -3 -115 -8 -115 -4 0 -13 -28 -19 -62 -7 -33 -17 -64 -23
-68 -7 -4 -11 -11 -11 -16 1 -17 -10 -44 -19 -44 -5 0 -11 -9 -15 -20 -7 -21
-107 -122 -114 -114 -2 2 15 22 38 44 22 22 41 42 41 45 0 2 11 20 23 39 13
19 30 56 37 83 8 26 18 51 24 55 17 11 15 410 -2 416 -6 2 -12 16 -12 31 0 39
-41 235 -50 241 -10 7 -31 82 -24 89 8 9 20 -17 34 -75 7 -30 18 -54 23 -54 5
0 7 8 4 18 -3 9 -11 38 -18 65 -7 26 -17 47 -21 47 -4 0 -9 10 -9 23 -1 16 -2
18 -6 5 -8 -30 -20 -20 -33 27 -7 25 -17 45 -21 45 -5 0 -9 9 -9 20 0 11 -4
20 -10 20 -5 0 -10 11 -10 25 0 18 4 23 15 19 8 -4 15 -12 15 -19 0 -24 33
-115 42 -115 10 0 2 40 -18 89 -8 18 -14 49 -14 67 0 19 -4 34 -10 34 -5 0
-10 14 -10 31 0 21 4 28 13 23 9 -6 9 -5 0 7 -16 20 -25 81 -14 99 11 17 9 19
38 -40 12 -25 25 -64 28 -87 4 -24 10 -45 15 -48 4 -3 11 -25 14 -50 10 -60
26 -57 26 5 0 28 -4 50 -9 50 -5 0 -12 16 -15 35 -4 19 -13 47 -21 62 -8 15
-15 39 -15 53 0 14 -9 31 -20 38 -11 7 -20 19 -20 27 0 8 -4 15 -9 15 -4 0 -7
12 -5 26 2 20 -8 37 -42 70 -24 24 -49 44 -54 44 -6 0 -8 15 -4 38 6 36 4 40
-25 52 -17 7 -31 19 -31 26 0 8 -18 33 -40 56 -22 24 -40 48 -40 54 0 13 -72
54 -95 54 -8 0 -15 5 -15 11 0 5 -4 7 -10 4 -5 -3 -10 -1 -10 4 0 6 -7 11 -15
11 -8 0 -15 4 -15 9 0 5 -13 12 -30 16 -16 4 -30 10 -30 14 0 5 -35 18 -77 31
-43 13 -85 26 -93 31 -35 17 -89 38 -145 55 -33 10 -62 22 -65 26 -3 4 -25 10
-48 14 -23 4 -42 10 -42 15 0 5 -9 9 -19 9 -11 0 -26 7 -34 15 -8 7 -27 17
-43 21 -16 4 -37 16 -48 26 -11 10 -26 18 -33 18 -7 0 -13 5 -13 10 0 6 -7 10
-15 10 -8 0 -24 9 -35 20 -11 11 -38 23 -60 26 -24 4 -41 13 -45 23 -4 15
-119 62 -148 61 -5 0 -15 7 -24 15 -8 8 -19 13 -24 10 -5 -4 -9 5 -9 19 0 14
4 26 9 26 21 0 15 36 -7 48 -29 15 -52 16 -52 2 0 -6 -29 -10 -66 -10 -57 0
-70 3 -86 23 -18 20 -30 22 -129 25 -60 2 -109 8 -109 13 0 4 -7 6 -15 3 -8
-4 -15 -1 -15 5 0 6 -7 11 -15 11 -8 0 -15 5 -15 10 0 6 -9 10 -19 10 -11 0
-27 7 -35 16 -9 8 -16 13 -16 9 0 -4 -7 0 -15 7 -35 31 -45 38 -59 38 -8 0
-17 8 -20 18 -3 9 -19 23 -34 30 -16 7 -34 23 -40 37 -6 14 -20 25 -30 25 -10
0 -25 11 -32 25 -8 14 -24 28 -37 31 -13 4 -23 12 -23 20 0 8 -4 14 -9 14 -5
0 -29 20 -55 44 -44 43 -46 46 -40 90 4 25 11 46 15 46 21 0 6 34 -27 63 -20
18 -40 42 -45 55 -7 18 -16 22 -49 22 -22 0 -40 5 -40 11 0 5 -4 8 -9 5 -12
-8 -21 18 -21 62 -1 24 -9 46 -24 63 -19 22 -33 27 -96 31 -41 3 -76 11 -78
17 -2 6 -19 11 -38 11 -19 0 -34 5 -34 10 0 6 -6 10 -13 10 -17 0 -47 36 -47
56 0 13 8 16 39 11 37 -5 38 -4 23 14 -11 13 -30 19 -58 19 -28 0 -44 5 -48
15 -4 12 -24 15 -92 15 -76 0 -89 3 -105 22 -11 11 -19 34 -19 50 0 15 -4 28
-10 28 -5 0 -10 9 -10 19 0 32 -46 157 -66 179 -34 37 -44 47 -61 63 -24 21
-97 49 -128 49 -14 0 -25 5 -25 10 0 6 -32 10 -75 10 -41 0 -75 4 -75 8 0 4
-47 19 -105 32 -58 13 -105 27 -105 32 0 4 -17 10 -37 13 -21 4 -47 10 -58 15
-11 5 -31 12 -45 16 -14 4 -28 11 -31 16 -3 5 -23 12 -45 15 -21 4 -45 12 -52
19 -7 7 -32 16 -57 20 -25 3 -45 10 -45 15 0 5 -56 9 -125 9 -69 0 -125 -4
-125 -8 0 -4 -27 -14 -60 -20 -33 -7 -60 -17 -60 -21 0 -5 -20 -12 -44 -15
-24 -4 -47 -13 -50 -21 -3 -8 -12 -15 -21 -15 -8 0 -15 -4 -15 -10 0 -5 -10
-10 -21 -10 -12 0 -27 -8 -34 -17 -10 -13 -30 -17 -92 -18 -44 -1 -88 -7 -99
-13 -17 -10 -16 -12 14 -18 17 -3 32 -9 32 -13 0 -12 -56 -31 -144 -50 -49
-10 -91 -23 -95 -28 -3 -6 -21 -14 -38 -18 -18 -3 -33 -11 -33 -16 0 -5 -6 -9
-14 -9 -8 0 -16 -7 -20 -15 -3 -8 -16 -15 -30 -15 -16 0 -27 -7 -31 -20 -3
-11 -10 -20 -14 -20 -4 0 -21 -13 -37 -30 -16 -16 -34 -30 -39 -30 -6 0 -17
-9 -25 -20 -8 -11 -22 -20 -30 -20 -9 0 -22 -6 -29 -12 -11 -10 -14 -10 -18 0
-6 15 -133 17 -133 2 0 -5 -9 -10 -19 -10 -11 0 -26 -7 -35 -15 -8 -8 -19 -15
-25 -15 -6 0 -11 -7 -11 -15 0 -8 -6 -15 -14 -15 -7 0 -19 -6 -25 -14 -6 -8
-22 -16 -35 -18 -49 -10 -236 25 -236 43 0 4 -26 17 -57 30 -32 13 -72 31 -90
41 -17 11 -45 23 -62 28 -29 8 -31 7 -25 -16 5 -20 2 -24 -15 -24 -17 0 -21 6
-21 30 0 23 -4 30 -20 30 -10 0 -23 7 -28 16 -7 12 -35 16 -140 21 -122 6
-132 7 -132 25 0 30 -32 78 -51 78 -10 0 -20 11 -23 26 -4 16 -18 30 -36 37
-17 6 -30 15 -30 19 0 4 -7 8 -15 8 -8 0 -15 5 -15 10 0 18 -56 11 -78 -10
-28 -27 -37 -25 -51 8 -6 15 -25 42 -41 59 -17 18 -30 39 -30 48 0 9 -13 21
-30 26 -16 6 -30 17 -30 25 0 8 -4 14 -8 14 -5 0 -22 11 -37 24 -30 26 -123
64 -180 73 -19 3 -35 9 -35 13 0 4 -30 13 -67 20 -77 13 -123 29 -123 41 0 4
-10 11 -22 15 -12 3 -28 12 -35 18 -34 30 -43 36 -58 36 -8 0 -15 4 -15 9 0 5
-10 13 -22 17 -13 4 -39 17 -58 30 -19 13 -49 24 -67 24 -18 0 -33 4 -33 10 0
5 -7 7 -15 4 -8 -4 -15 -1 -15 5 0 6 -7 11 -15 11 -8 0 -15 5 -15 10 0 6 11
10 24 10 19 0 25 7 30 36 4 19 10 42 13 50 4 11 -6 14 -46 14 -48 0 -51 -2
-51 -25 0 -31 -18 -33 -29 -4 -7 21 -8 21 -29 -9 -12 -16 -22 -35 -22 -41 0
-6 -6 -11 -12 -11 -382 -5 -510 -3 -518 9 -9 15 -118 20 -182 9 -35 -6 -38 -5
-38 17 0 12 7 25 15 29 8 3 15 10 15 16 0 7 -131 10 -398 10 -317 0 -402 -3
-417 -14z m5326 -457 c29 -6 59 -18 67 -25 7 -8 24 -14 36 -14 13 0 44 -11 71
-25 26 -14 68 -28 94 -31 25 -3 48 -9 51 -14 3 -4 25 -13 50 -20 25 -7 49 -15
54 -18 5 -3 23 -6 40 -8 17 -1 32 -7 34 -13 2 -6 19 -11 38 -11 19 0 34 -4 34
-9 0 -5 37 -14 83 -20 102 -15 157 -29 157 -41 0 -5 9 -11 19 -15 27 -8 91
-71 91 -88 0 -8 6 -20 14 -26 7 -6 21 -39 31 -74 9 -34 20 -66 23 -72 3 -5 7
-22 9 -37 2 -23 -1 -28 -20 -28 -31 1 -57 23 -57 49 0 11 -4 21 -9 21 -5 0
-12 16 -15 35 -4 19 -11 35 -16 35 -5 0 -11 8 -14 18 -17 50 -120 122 -176
122 -10 0 -20 5 -22 10 -2 6 -21 13 -43 16 -39 6 -105 32 -115 46 -3 4 -23 9
-45 11 -22 3 -32 2 -22 0 9 -2 17 -9 17 -14 0 -5 9 -9 19 -9 11 0 23 -4 26
-10 10 -17 -17 -11 -70 15 -27 14 -59 25 -71 25 -11 0 -24 4 -30 9 -5 5 -18
11 -29 14 -13 3 -9 5 12 6 17 0 34 -3 37 -8 8 -12 56 -20 56 -10 0 5 -19 14
-42 20 -24 7 -47 16 -52 21 -14 11 -56 10 -56 -2 0 -5 5 -10 12 -10 6 0 9 -3
6 -6 -3 -3 -23 5 -44 16 -33 18 -35 21 -11 16 15 -4 27 -2 27 3 0 4 -16 11
-34 14 -19 3 -51 13 -71 23 -29 13 -39 14 -45 5 -10 -17 -50 7 -43 25 3 7 -9
15 -29 19 -18 4 -37 10 -43 13 -15 9 -245 8 -245 0 0 -5 -10 -8 -22 -8 -13 -1
-41 -9 -63 -20 -22 -11 -46 -19 -52 -20 -7 0 -13 -3 -13 -8 0 -8 -92 -52 -110
-52 -7 0 -24 -13 -39 -29 -14 -15 -38 -32 -51 -36 -14 -4 -28 -12 -32 -18 -3
-6 -52 -11 -109 -12 -67 -1 -104 -6 -107 -13 -2 -7 -10 -12 -18 -12 -8 0 -14
-6 -14 -14 0 -19 -48 -76 -65 -76 -7 0 -18 -7 -25 -15 -16 -19 -78 -36 -107
-29 -26 7 -33 44 -8 44 8 0 15 4 15 8 0 4 15 16 33 26 17 11 41 29 52 41 13
15 36 24 70 28 27 3 51 10 53 16 2 6 10 11 19 11 24 0 168 43 171 52 2 4 12 8
23 8 10 0 19 5 19 10 0 6 11 10 25 10 14 0 25 -5 25 -11 0 -6 7 -4 15 5 20 19
19 26 -2 27 -11 0 -5 5 12 11 17 6 51 24 76 40 25 15 51 28 58 28 6 0 11 4 11
9 0 5 18 12 40 16 22 4 40 10 40 14 0 25 250 39 341 20z m-13 -108 c2 -6 9
-11 17 -11 19 0 137 -39 149 -49 14 -11 162 -61 182 -61 8 0 14 -4 14 -10 0
-5 11 -10 24 -10 13 0 26 -5 28 -11 2 -6 16 -11 31 -11 17 0 29 -7 32 -18 3
-10 20 -21 39 -24 19 -4 46 -18 60 -31 15 -14 33 -25 41 -25 7 0 20 -7 29 -15
8 -9 31 -22 51 -30 19 -9 35 -20 35 -25 0 -6 7 -10 15 -10 8 0 19 -9 25 -20 6
-11 17 -20 25 -20 21 0 19 -26 -2 -36 -14 -6 -8 -9 22 -13 35 -5 40 -9 42 -36
2 -21 0 -26 -7 -15 -5 8 -7 17 -5 20 1 3 -17 5 -41 6 -36 1 -44 -2 -44 -17 0
-11 10 -21 25 -25 15 -4 25 -13 25 -25 0 -10 10 -25 22 -33 18 -13 19 -16 5
-16 -9 0 -19 -10 -22 -23 -4 -13 -20 -30 -38 -38 -28 -12 -36 -12 -64 1 -22
10 -33 22 -33 38 0 14 -6 22 -17 22 -14 0 -13 3 5 16 12 8 22 24 22 35 0 10 6
19 14 19 18 0 37 23 28 35 -4 6 -25 10 -47 10 -22 1 -86 4 -142 7 -66 3 -103
2 -106 -5 -2 -7 -13 -7 -35 1 -17 6 -34 7 -37 2 -7 -12 -237 -12 -345 0 -52 6
-126 13 -165 15 -77 5 -175 23 -190 35 -9 8 -103 23 -147 24 -10 0 -18 7 -19
16 0 10 -2 11 -6 3 -6 -17 -63 -16 -104 1 l-32 14 29 15 c16 9 23 16 16 17 -7
0 -10 5 -6 11 5 8 10 6 16 -5 5 -9 14 -14 19 -11 5 4 6 11 3 17 -5 8 -1 9 11
5 9 -4 24 -2 31 4 9 7 31 9 57 6 27 -4 35 -3 22 2 -17 8 -18 10 -4 15 9 4 20
6 25 5 5 -1 23 4 39 11 17 7 36 12 43 11 6 -1 12 4 12 11 0 9 -18 14 -55 15
-35 1 -60 7 -71 17 -14 15 -14 16 3 16 17 1 17 1 -1 12 -15 8 -22 7 -31 -6
-12 -15 -13 -15 -19 1 -5 11 -1 22 11 31 16 11 16 14 3 22 -13 8 -12 10 3 10
9 0 17 4 17 9 0 5 14 14 30 21 17 7 30 16 30 20 0 4 8 10 18 13 9 4 35 13 57
21 22 9 50 16 63 16 12 0 22 4 22 9 0 15 46 20 150 16 55 -2 96 -8 98 -14z
m-4173 -230 c43 -19 56 -36 34 -43 -7 -2 -7 -18 1 -51 10 -47 5 -97 -10 -97
-5 0 -16 -3 -26 -7 -13 -5 -15 -3 -9 7 5 9 4 11 -3 6 -8 -4 -9 -18 -6 -34 7
-27 7 -27 -15 -8 -16 15 -21 16 -21 5 0 -8 4 -19 9 -24 12 -13 17 -67 8 -83
-6 -8 -14 -9 -27 -2 -27 14 -34 12 -20 -5 10 -13 9 -15 -9 -15 -11 0 -21 -4
-21 -10 0 -5 -12 -10 -26 -10 -18 0 -25 4 -21 14 4 9 -3 16 -19 20 -13 4 -24
12 -23 19 1 15 17 55 18 44 1 -5 8 -1 17 8 21 21 9 33 -17 16 -12 -7 -24 -10
-27 -7 -3 3 0 6 6 6 21 0 13 20 -13 32 -15 7 -24 17 -21 25 4 8 -2 13 -15 13
-16 0 -20 -4 -15 -17 6 -17 5 -17 -8 0 -7 9 -18 17 -25 17 -6 0 -11 7 -11 15
0 8 5 15 10 15 6 0 10 5 10 11 0 6 -8 9 -17 7 -22 -4 -36 -61 -28 -115 7 -50
41 -74 90 -66 24 4 27 2 15 -6 -13 -10 -13 -13 3 -22 9 -5 17 -17 17 -24 0
-21 -38 -19 -43 3 -4 14 -5 13 -6 -3 -2 -32 -20 -45 -45 -34 -14 7 -28 30 -41
72 -10 34 -22 64 -26 67 -12 9 29 148 57 189 27 42 72 76 122 92 41 13 147 2
197 -20z m-1965 -4 c0 -2 -18 -28 -40 -57 -22 -29 -40 -59 -40 -66 0 -7 -7
-20 -16 -28 -8 -9 -12 -16 -7 -16 4 0 2 -4 -6 -9 -7 -5 -16 -32 -19 -60 -2
-28 -9 -54 -13 -57 -13 -8 -11 -182 2 -186 6 -2 9 -26 7 -58 l-3 -55 -23 49
c-31 63 -45 156 -37 236 7 70 49 172 87 212 13 13 30 34 38 46 8 12 20 22 28
22 7 0 15 7 18 15 5 13 24 22 24 12z m5340 -671 c91 -18 160 -42 262 -90 83
-40 96 -52 80 -68 -7 -7 -4 -17 10 -32 26 -28 45 -65 51 -101 7 -44 19 -68 38
-83 10 -6 21 -27 25 -45 3 -17 22 -62 40 -98 41 -80 56 -170 71 -413 5 -84 3
-110 -7 -116 -10 -6 -11 -12 -3 -22 9 -10 5 -38 -12 -110 -13 -53 -28 -105
-35 -117 -32 -60 -77 -116 -128 -157 -31 -25 -64 -51 -73 -59 -9 -7 -27 -16
-40 -20 -13 -4 -33 -14 -44 -21 -11 -8 -27 -14 -37 -14 -10 0 -18 -4 -18 -9 0
-8 -69 -37 -105 -43 -11 -2 90 -3 225 -3 192 0 269 -4 355 -19 214 -35 445
-114 598 -203 64 -37 77 -49 77 -70 0 -22 -4 -25 -25 -21 -30 6 -34 -8 -5 -17
11 -3 20 -10 20 -14 0 -4 9 -17 20 -29 l21 -22 -30 0 c-16 0 -33 5 -36 10 -9
14 -36 13 -33 -2 2 -6 -6 -14 -17 -16 -23 -5 -45 -21 -45 -33 0 -9 63 22 68
34 7 15 22 6 22 -14 0 -12 -8 -23 -19 -26 -11 -3 -21 -13 -24 -24 -6 -23 6
-25 27 -4 8 8 17 15 20 15 9 0 -6 -64 -17 -71 -13 -9 -5 -41 12 -47 9 -3 11 0
6 7 -4 7 5 22 22 37 30 26 43 30 43 14 0 -5 -6 -10 -13 -10 -9 0 -14 -13 -15
-35 -1 -23 3 -33 11 -29 8 3 12 -8 13 -31 0 -19 -3 -35 -8 -35 -4 0 -8 -4 -8
-10 0 -5 7 -10 16 -10 8 0 13 -4 10 -9 -9 -14 5 -42 16 -35 6 4 7 -2 3 -16 -4
-14 -3 -25 4 -30 9 -5 8 -10 -4 -20 -13 -10 -15 -9 -16 6 -1 11 -1 27 0 37 3
26 -32 21 -58 -10 -17 -18 -19 -24 -7 -20 9 4 16 2 16 -3 0 -5 9 -11 19 -15
20 -6 36 -58 20 -63 -5 -2 -16 -10 -24 -19 -13 -13 -15 -12 -15 6 0 11 5 23
10 26 6 4 7 11 4 17 -5 7 -11 2 -16 -11 l-8 -23 -20 23 -19 24 -1 -23 c0 -13
-4 -20 -10 -17 -16 10 -49 -14 -47 -34 2 -26 27 -15 27 12 0 17 3 18 12 9 10
-10 10 -17 0 -32 -16 -26 -15 -33 3 -26 9 3 18 -1 22 -10 3 -8 12 -13 19 -10
8 3 14 0 14 -6 0 -6 9 -3 20 7 17 16 21 16 35 2 17 -17 21 -42 5 -32 -5 3 -10
-3 -10 -15 0 -29 -20 -33 -64 -15 -43 18 -47 17 -48 -16 -1 -13 -7 -31 -13
-39 -7 -8 -16 -28 -19 -45 -7 -29 -7 -29 13 -11 11 10 25 15 31 11 16 -10 -18
-45 -36 -38 -16 6 -17 2 -8 -22 4 -9 10 -13 13 -8 8 10 68 53 76 53 11 0 5
-29 -7 -33 -10 -3 -10 -7 -1 -17 8 -9 9 -19 2 -32 -6 -10 -6 -18 0 -18 12 0
22 27 15 43 -2 7 13 32 35 56 43 47 53 40 39 -24 -5 -21 -7 -49 -4 -62 4 -12
2 -25 -4 -28 -5 -3 -10 -21 -9 -38 0 -31 1 -31 10 -7 14 33 16 35 35 20 13
-12 17 -11 24 1 8 11 12 11 24 -6 13 -18 13 -22 -4 -40 -28 -32 -20 -135 12
-135 5 0 8 10 5 23 -21 86 -20 96 7 103 21 5 29 15 37 51 8 28 15 41 21 35 6
-6 6 -17 -1 -30 -15 -29 -14 -32 10 -32 17 0 19 -3 10 -14 -10 -11 -9 -15 5
-18 10 -1 23 -19 30 -38 10 -27 13 -30 13 -12 1 26 16 29 26 5 6 -17 7 -17 20
0 12 17 15 16 49 -17 22 -23 33 -42 29 -52 -4 -12 0 -14 21 -8 21 5 25 3 20
-10 -4 -11 -1 -16 10 -16 9 0 16 8 17 18 0 14 2 14 9 -3 9 -19 9 -19 16 3 8
29 38 31 39 3 0 -8 8 -19 18 -25 15 -9 22 -7 37 12 22 27 50 20 50 -14 0 -28
6 -30 26 -9 19 19 54 3 62 -27 3 -14 7 -16 12 -8 4 7 13 9 19 6 6 -4 9 -12 6
-17 -4 -5 4 -10 17 -11 13 0 29 -2 35 -2 7 -1 22 -9 33 -19 11 -9 25 -17 30
-17 6 0 10 -9 10 -20 0 -11 5 -20 11 -20 8 0 10 24 5 78 -3 42 -3 71 0 64 3
-7 24 -22 45 -33 22 -11 43 -27 46 -37 8 -21 38 -55 86 -100 20 -19 37 -41 37
-49 0 -7 7 -13 15 -13 8 0 15 -4 15 -9 0 -5 3 -16 6 -25 4 -11 -2 -19 -17 -25
l-24 -10 26 0 c24 -1 39 -17 39 -41 0 -5 -9 -12 -20 -15 -13 -4 -20 -14 -19
-28 1 -18 2 -19 6 -4 3 10 12 17 21 15 20 -4 28 -28 9 -28 -8 0 -22 -11 -31
-25 -9 -14 -12 -25 -6 -25 5 0 10 5 10 12 0 9 3 8 13 -1 9 -10 9 -15 1 -18 -8
-2 -10 -22 -7 -54 3 -29 0 -55 -7 -64 -7 -8 -7 -15 -1 -19 6 -4 5 -17 -4 -34
-8 -15 -27 -55 -42 -89 -15 -34 -36 -64 -45 -66 -21 -6 -35 -36 -21 -46 15 -9
9 -54 -8 -59 -42 -11 -43 -12 -23 -27 16 -11 17 -16 6 -27 -11 -11 -16 -10
-29 7 -10 12 -14 14 -10 4 3 -8 -5 -24 -18 -35 -20 -17 -20 -20 -6 -31 14 -11
14 -12 -1 -13 -11 0 -18 -8 -18 -20 0 -11 -4 -20 -10 -20 -5 0 -10 -7 -10 -15
0 -8 -9 -15 -20 -15 -13 0 -22 -9 -26 -25 -3 -14 -9 -25 -14 -25 -4 0 -12 -18
-19 -40 -6 -22 -16 -40 -21 -40 -12 0 -13 23 -1 35 5 6 16 37 26 70 9 33 21
73 26 89 5 16 8 38 8 50 -1 17 -2 18 -6 4 -2 -10 -10 -18 -17 -18 -6 0 -23
-13 -36 -29 -20 -23 -27 -25 -35 -14 -9 11 -16 8 -39 -16 -27 -28 -29 -29 -63
-14 -30 12 -38 12 -45 1 -8 -10 -11 -10 -15 0 -7 17 -23 15 -23 -3 0 -8 -9
-15 -20 -15 -11 0 -23 7 -26 15 -8 21 -24 19 -24 -2 0 -14 -2 -15 -9 -4 -7 11
-10 11 -17 0 -4 -7 -3 -14 4 -17 17 -5 15 -22 -3 -22 -8 0 -15 9 -15 20 0 32
-18 23 -31 -15 -8 -22 -18 -34 -26 -30 -8 2 -17 -5 -23 -19 -5 -13 -15 -26
-22 -28 -10 -4 -9 -10 6 -26 32 -37 -8 -82 -42 -48 -14 13 -14 20 -4 36 6 11
12 27 12 35 0 8 6 15 14 15 8 0 17 7 20 16 8 21 -2 33 -13 15 -5 -7 -17 -11
-27 -9 -13 2 -19 -3 -18 -14 1 -10 -4 -18 -11 -18 -7 0 -15 -5 -17 -11 -5 -14
-41 -18 -50 -5 -4 5 -2 16 4 23 7 9 7 13 -1 13 -6 0 -14 -7 -17 -15 -4 -8 -12
-15 -20 -15 -8 0 -14 -5 -14 -12 0 -6 -3 -8 -7 -5 -3 4 2 16 12 27 24 27 7 26
-22 -2 -27 -25 -28 -31 -7 -52 14 -15 14 -16 -3 -16 -28 -1 -65 -37 -67 -65
-1 -21 -6 -25 -33 -25 -22 0 -37 -7 -45 -20 -17 -27 -28 -25 -20 3 5 20 4 21
-11 8 -9 -7 -17 -21 -17 -30 -1 -24 -34 -60 -56 -58 -13 1 -20 -5 -22 -20 -2
-13 -7 -23 -12 -23 -5 0 -15 -3 -24 -6 -22 -9 -21 22 2 35 9 6 13 10 7 10 -14
0 -65 -46 -65 -58 0 -5 -18 -25 -40 -44 -22 -19 -40 -40 -40 -48 -1 -21 -38
-61 -50 -54 -5 3 -10 13 -10 21 0 29 -19 13 -26 -21 -7 -39 -28 -61 -22 -24 2
18 -2 24 -17 24 -16 0 -20 -7 -20 -33 0 -29 -16 -51 -37 -52 -11 0 -10 18 2
25 6 3 10 14 9 23 0 14 -2 13 -9 -3 -15 -36 -49 -64 -87 -71 -21 -4 -44 -11
-51 -17 -10 -8 -16 -8 -20 0 -4 6 -17 13 -29 17 -17 6 -23 3 -23 -8 0 -9 -4
-16 -9 -16 -21 0 -41 13 -41 27 0 8 -4 11 -10 8 -14 -9 -12 -45 3 -46 6 0 -1
-5 -18 -10 -22 -6 -31 -5 -38 6 -11 19 -26 19 -49 -2 -11 -9 -18 -11 -18 -5 0
7 -4 12 -10 12 -5 0 -10 -6 -10 -13 0 -16 -47 -43 -57 -34 -3 4 -17 0 -31 -9
-27 -18 -41 -12 -22 11 21 25 -5 17 -30 -10 -26 -28 -42 -33 -34 -10 4 10 0
15 -15 15 -13 0 -21 -6 -21 -18 0 -11 -8 -18 -21 -19 -15 -1 -19 2 -15 14 5
12 1 14 -21 9 -16 -4 -34 -7 -42 -8 -8 -1 -23 -10 -33 -20 -20 -20 -38 -24
-38 -7 0 5 4 8 9 5 5 -3 14 1 20 8 7 8 8 16 4 19 -11 6 -49 -9 -58 -22 -4 -7
-12 -8 -24 -1 -10 5 -21 6 -25 3 -3 -3 -6 -1 -6 5 0 15 -33 15 -48 0 -9 -9
-13 -7 -18 5 -9 23 -23 12 -17 -14 3 -12 11 -18 19 -15 11 4 10 -1 -2 -19 -20
-31 -24 -31 -21 -3 1 18 -4 24 -23 26 -23 2 -24 1 -7 -11 24 -20 21 -26 -14
-25 -25 1 -30 5 -25 20 4 18 3 18 -12 5 -28 -25 -92 -26 -92 -2 0 22 -18 18
-25 -5 -7 -22 -20 -26 -30 -10 -3 6 -1 10 5 10 11 0 49 39 50 50 0 3 -11 6
-24 6 -17 1 -23 -2 -19 -12 4 -11 -1 -12 -27 -2 -25 8 -34 8 -40 -2 -6 -9 -30
-13 -73 -13 -56 1 -68 -2 -88 -23 -26 -27 -39 -31 -39 -10 0 8 -5 18 -12 22
-6 4 -8 3 -4 -4 12 -19 -15 -25 -29 -6 -19 25 -18 34 0 34 17 0 20 26 4 35 -6
4 -16 -1 -23 -10 -20 -28 -80 -28 -107 1 -12 13 -29 24 -36 24 -8 0 -11 5 -8
10 3 6 1 10 -4 10 -6 0 -11 -2 -11 -4 0 -2 -3 -11 -6 -20 -4 -11 4 -20 27 -31
19 -8 26 -14 17 -15 -10 0 -18 -5 -18 -11 0 -7 -13 2 -30 19 -16 18 -30 38
-30 47 0 9 -6 12 -15 9 -11 -5 -13 -10 -5 -19 6 -8 6 -20 -3 -38 -15 -33 -31
-30 -35 6 -4 30 -21 37 -23 10 -1 -16 -2 -16 -6 -2 -2 10 -13 19 -24 22 -10 3
-19 13 -19 22 0 9 -5 13 -11 9 -8 -4 -9 1 -4 17 7 21 6 22 -9 10 -10 -9 -16
-10 -16 -2 0 6 -5 11 -10 11 -6 0 0 -20 12 -44 14 -25 26 -39 30 -33 11 17 21
1 13 -21 -6 -20 -6 -20 -39 1 -21 14 -29 25 -22 29 11 8 8 9 -24 12 -10 1 -14
10 -12 29 2 15 -1 27 -7 27 -6 0 -8 -8 -4 -17 8 -25 -79 60 -138 134 -30 37
-55 60 -63 57 -17 -6 -33 16 -18 25 6 3 -17 51 -56 116 -89 150 -139 275 -207
515 -50 174 -65 553 -31 760 16 101 81 355 96 375 4 6 20 42 35 80 30 78 47
112 118 235 112 194 250 354 467 540 22 19 22 20 3 11 -12 -6 -25 -16 -28 -21
-3 -6 -17 -10 -30 -10 -13 0 -30 -8 -37 -19 -7 -10 -23 -21 -34 -25 -16 -5
-20 -12 -17 -26 6 -22 -7 -26 -25 -8 -9 9 -12 6 -12 -15 0 -15 -6 -27 -13 -27
-13 0 -32 -21 -107 -124 -27 -38 -77 -96 -110 -130 -33 -33 -60 -65 -60 -71 0
-5 -19 -20 -43 -31 -103 -53 -127 -67 -127 -75 0 -5 -18 -16 -40 -25 -22 -9
-40 -21 -40 -26 0 -5 -7 -2 -16 6 -24 25 -42 19 -84 -24 -37 -38 -43 -61 -25
-90 10 -16 -17 -7 -39 12 -13 12 -16 21 -9 30 19 24 23 48 9 48 -9 0 -12 -7
-9 -19 3 -12 -2 -20 -15 -23 -15 -4 -18 -1 -14 14 2 10 -3 27 -12 37 -13 15
-14 20 -4 24 8 3 2 9 -14 16 -16 6 -28 17 -28 26 0 22 31 18 37 -5 3 -11 10
-20 17 -20 6 0 22 -3 36 -6 l25 -6 -24 17 c-15 12 -19 20 -11 25 17 10 2 57
-26 79 -13 10 -24 23 -24 27 0 5 -19 18 -42 30 -32 15 -42 26 -40 40 2 15 1
16 -7 5 -6 -9 -15 -11 -27 -6 -23 10 -23 10 -59 20 -16 4 -36 14 -42 23 -12
14 -14 14 -27 -4 -11 -14 -17 -16 -26 -7 -15 14 -5 33 18 33 15 1 15 2 2 13
-9 7 -29 35 -46 62 -27 46 -29 53 -19 88 6 21 14 35 18 31 4 -4 7 -2 7 4 0 6
-9 16 -20 22 -16 9 -20 8 -20 -5 0 -10 -7 -15 -17 -13 -24 4 -28 27 -6 36 22
9 25 61 3 80 -11 10 -12 15 -3 18 18 8 4 63 -21 88 l-21 21 23 3 c21 3 22 5 7
15 -10 8 -17 32 -20 66 -2 31 -11 61 -21 72 -9 10 -14 24 -12 31 4 9 -6 14
-29 16 -19 1 -44 7 -56 13 -16 9 -22 9 -25 0 -2 -6 -12 -11 -22 -11 -10 0 -20
-6 -23 -12 -2 -7 -7 -10 -11 -6 -10 8 25 48 41 48 8 0 11 9 7 29 -3 16 -1 38
6 50 16 30 -3 51 -44 51 -40 0 -62 30 -45 61 9 18 17 20 47 14 21 -4 39 -11
41 -17 4 -11 25 28 35 65 4 16 2 27 -4 27 -5 0 -10 -7 -10 -15 0 -17 -16 -20
-25 -4 -4 6 0 16 9 22 19 15 35 89 30 141 -2 22 1 45 6 52 6 6 8 18 5 26 -7
17 52 78 101 104 19 10 36 26 39 35 6 19 84 44 128 42 15 -1 27 2 27 8 0 5 7
9 15 9 8 0 15 -6 15 -12 0 -10 32 -13 130 -13 119 1 131 3 153 23 13 12 30 22
39 22 9 0 26 8 39 19 18 15 30 16 61 9 21 -4 49 -6 62 -2 23 5 86 81 86 103 0
12 11 14 34 5 10 -4 16 -18 16 -38 1 -27 3 -24 20 24 68 187 121 293 200 395
61 79 201 209 277 259 143 92 296 152 443 174 41 7 86 14 100 16 45 8 233 -3
310 -18z m-3630 3 c0 -5 5 -7 10 -4 6 3 10 0 10 -8 0 -8 9 -13 23 -12 12 2 37
-7 55 -18 28 -16 53 -20 147 -21 118 -1 143 -9 149 -48 1 -8 10 -27 19 -41 13
-20 14 -27 5 -28 -10 0 -10 -2 -1 -6 7 -2 11 -14 9 -26 -1 -12 -1 -16 1 -9 7
20 33 14 33 -8 0 -11 -5 -20 -10 -20 -7 0 -7 -7 1 -21 8 -15 8 -19 0 -15 -10
7 -16 -6 -12 -28 4 -18 -11 -46 -25 -46 -8 0 -14 -6 -14 -13 0 -8 -9 -22 -20
-33 -12 -10 -30 -29 -42 -41 -21 -22 -48 -29 -163 -37 -37 -3 -72 1 -92 9 -28
12 -33 12 -33 -1 0 -21 -23 -17 -38 6 -7 11 -18 20 -25 19 -9 0 -9 -2 1 -6 6
-2 12 -11 12 -19 0 -15 -12 -19 -24 -6 -4 4 -12 8 -17 8 -5 1 -13 2 -19 3 -5
0 -10 6 -10 12 0 5 5 7 10 4 6 -3 10 -1 10 4 0 6 -9 11 -20 11 -11 0 -20 -7
-20 -15 0 -8 -7 -15 -15 -15 -22 0 -18 31 5 37 32 8 23 20 -11 15 -30 -4 -32
-3 -27 22 3 14 1 26 -3 26 -5 0 -9 6 -9 14 0 8 -3 16 -7 18 -5 2 -18 22 -29
45 -24 46 -21 93 5 93 23 1 53 46 46 70 -7 21 -25 28 -25 10 0 -5 -4 -10 -10
-10 -5 0 -10 6 -10 14 0 8 -3 16 -7 19 -5 2 -3 2 4 1 7 -2 15 1 18 6 4 6 -1
10 -11 10 -13 0 -11 4 8 19 67 53 168 89 168 60z m4293 -231 c12 -6 29 -14 37
-18 8 -4 28 -26 44 -48 27 -38 28 -43 14 -59 -36 -42 -30 -90 14 -114 25 -13
79 -19 72 -7 -3 4 -1 8 5 8 5 0 13 9 16 21 4 11 19 25 33 31 15 7 38 22 52 33
42 37 57 37 69 3 14 -39 7 -50 -27 -42 -23 4 -24 3 -9 -6 9 -6 17 -17 17 -23
0 -16 -36 -47 -54 -47 -7 0 -21 -9 -31 -20 -10 -11 -21 -17 -25 -15 -4 3 -23
-1 -41 -9 -19 -7 -40 -11 -48 -8 -9 3 -11 0 -6 -9 16 -28 -13 7 -68 83 -32 43
-80 103 -108 134 -46 51 -50 59 -35 69 9 7 16 16 16 22 0 11 21 33 32 33 5 0
18 -5 31 -12z m4347 -1795 c0 -7 3 -13 8 -13 4 0 16 -24 26 -52 10 -29 24 -66
31 -83 17 -37 41 -133 50 -200 4 -27 13 -56 19 -64 16 -20 15 -419 -1 -429 -6
-4 -15 -20 -18 -35 -4 -15 -10 -27 -14 -27 -5 0 -14 -18 -21 -41 -8 -23 -20
-43 -27 -46 -7 -3 -13 -10 -13 -15 0 -9 -38 -48 -47 -48 -7 0 -2 9 27 41 16
19 33 43 36 54 4 11 10 22 14 25 3 3 13 26 22 52 12 38 13 50 3 58 -13 11 -26
0 -38 -30 -4 -8 -4 3 -1 25 4 22 12 45 19 50 10 8 10 13 -1 23 -8 7 -14 25
-15 40 0 15 -4 36 -9 47 -7 17 -9 14 -9 -13 -1 -53 -23 -172 -32 -172 -4 0 -9
-8 -12 -17 -2 -10 -4 17 -3 60 1 43 -2 81 -7 86 -5 5 -3 12 4 16 8 6 10 4 5
-6 -4 -8 0 -5 8 5 9 11 16 27 17 35 0 9 1 35 2 57 1 30 -2 40 -10 37 -7 -3
-13 1 -13 10 0 8 -3 36 -6 63 -4 33 -2 44 4 35 14 -20 25 4 13 27 -6 11 -7 22
-3 26 3 4 0 11 -8 17 -13 7 -13 10 -1 18 9 6 10 11 2 15 -6 4 -11 18 -11 31 0
13 -7 30 -15 38 -8 8 -11 17 -8 20 3 4 2 14 -2 24 -5 10 -9 41 -10 68 -1 28
-5 59 -9 70 -6 16 -6 17 3 5 15 -21 14 -12 -9 50 -15 40 -16 50 -5 36 8 -11
15 -25 16 -30 1 -27 18 33 19 69 1 37 2 39 15 21 8 -11 15 -26 15 -33z m-7162
-2460 c19 -1 40 -7 47 -13 7 -6 26 -10 41 -9 39 1 99 -15 129 -35 14 -9 47
-17 75 -17 33 -1 50 -6 50 -14 0 -23 24 -34 43 -21 9 7 17 18 17 24 0 15 28
23 36 10 4 -6 -3 -19 -15 -29 -17 -14 -19 -19 -8 -26 13 -7 37 -45 37 -57 0
-3 -6 -4 -12 -2 -7 1 -10 1 -5 -1 4 -3 7 -12 7 -20 0 -9 3 -13 8 -9 4 4 7 13
7 19 0 7 8 13 18 15 27 5 20 -21 -13 -50 -16 -14 -30 -35 -30 -46 0 -11 -12
-45 -26 -77 -19 -42 -34 -59 -55 -67 -29 -10 -45 -39 -33 -60 6 -10 4 -11 -7
0 -7 6 -24 12 -39 11 -14 0 -19 -3 -12 -6 20 -8 14 -25 -7 -18 -13 4 -23 0
-30 -12 -9 -17 -11 -17 -26 5 -20 27 -39 29 -30 2 6 -20 6 -20 -41 0 -37 16
-44 17 -34 5 19 -23 4 -30 -33 -17 -45 16 -82 15 -97 -3 -17 -20 -37 -19 -49
3 -16 31 36 61 54 32 3 -5 11 -10 16 -10 6 0 3 10 -5 22 -9 12 -13 32 -10 44
3 12 1 25 -5 28 -6 4 -11 18 -11 32 0 13 -4 24 -10 24 -5 0 -17 8 -27 19 -23
24 -98 37 -118 21 -11 -9 -16 -7 -24 9 -15 27 -14 31 4 25 17 -7 21 11 5 21
-16 10 -12 28 13 55 21 22 69 103 101 167 12 25 46 44 61 34 6 -3 25 -7 43 -8z
m5978 -461 c32 1 68 -1 79 -4 11 -3 14 -3 8 -1 -17 6 -16 33 1 33 20 0 37 -25
30 -44 -6 -16 2 -20 41 -17 12 1 16 -1 9 -6 -22 -16 -24 -43 -4 -55 24 -15 26
-28 4 -28 -10 0 -12 -4 -7 -12 4 -7 6 -21 5 -30 -2 -10 1 -18 6 -18 5 0 12 -9
15 -20 4 -14 0 -20 -11 -21 -11 0 -12 -2 -4 -6 13 -5 17 -43 5 -43 -10 0 -33
-49 -33 -69 -1 -15 -55 -76 -68 -76 -15 -1 -58 -30 -77 -51 -15 -17 -38 -26
-85 -33 -90 -13 -170 -13 -170 -1 0 5 -7 10 -15 10 -8 0 -15 6 -15 14 0 9 -8
12 -24 9 -18 -4 -35 6 -70 40 -50 50 -54 57 -31 57 8 0 15 5 15 10 0 6 -5 10
-11 10 -7 0 -9 17 -6 48 11 100 19 115 117 210 68 66 119 93 164 85 28 -4 34
-2 40 18 6 22 7 23 19 7 11 -13 28 -17 73 -16z m-6978 -204 c2 -5 10 -4 18 3
10 8 14 8 14 0 0 -18 27 -13 35 7 7 15 9 14 15 -8 8 -24 8 -24 9 -2 1 26 21
30 22 5 0 -15 2 -15 9 2 l9 20 1 -20 c1 -18 2 -18 8 -2 7 16 10 16 27 3 13
-10 24 -11 32 -5 8 7 18 4 32 -10 12 -12 27 -21 35 -21 8 0 16 -7 20 -15 3 -8
14 -15 25 -15 13 0 19 -5 15 -14 -3 -8 -1 -17 5 -21 6 -3 11 1 11 9 0 23 21
19 52 -9 18 -16 29 -21 34 -14 5 8 10 6 16 -5 5 -9 16 -16 24 -16 8 0 12 -4 9
-10 -3 -5 0 -7 8 -4 8 3 17 -2 21 -12 5 -13 2 -15 -18 -12 -22 4 -24 3 -15
-13 5 -11 6 -19 2 -19 -4 0 -1 -5 7 -10 11 -8 8 -9 -11 -4 -17 3 -30 1 -34 -7
-5 -8 -4 -10 3 -5 7 4 12 2 12 -5 0 -7 -10 -9 -25 -7 -32 6 -32 0 -1 -11 24
-10 36 -44 36 -104 0 -45 -12 -24 -18 30 -4 45 -14 62 -36 63 -5 0 -4 -6 1
-12 6 -7 13 -23 16 -35 4 -18 1 -23 -13 -23 -11 0 -22 -5 -26 -11 -3 -6 -17
-8 -30 -5 -17 5 -26 2 -30 -8 -3 -8 -12 -12 -20 -9 -23 9 -16 -3 27 -47 23
-23 39 -44 35 -47 -7 -7 -36 22 -36 37 0 15 -44 30 -70 23 -12 -3 -25 -1 -29
5 -4 6 -18 13 -31 14 -21 3 -25 -1 -23 -22 1 -14 -1 -19 -3 -12 -3 6 -11 12
-18 12 -8 0 -29 13 -47 30 -19 16 -38 30 -42 30 -18 0 -117 119 -117 140 0 6
-7 18 -15 26 -8 9 -15 26 -15 39 0 13 -5 25 -10 27 -6 2 -11 27 -13 57 -2 50
0 54 21 56 13 1 27 -5 33 -14 8 -12 8 -11 3 7 -5 21 -3 23 18 17 12 -4 25 -12
26 -17z m7850 -470 c-2 -9 15 -13 60 -14 73 0 105 -19 78 -47 -14 -13 -13 -16
10 -21 19 -5 25 -12 21 -25 -6 -25 67 -94 91 -87 19 6 62 -26 62 -47 0 -7 16
-25 35 -42 19 -16 35 -33 35 -37 0 -12 -33 3 -53 24 -24 24 -41 24 -27 -1 14
-26 13 -31 -6 -31 -13 0 -12 -5 5 -26 12 -15 21 -31 21 -35 0 -15 -28 -10 -34
6 -3 8 -12 15 -21 15 -17 0 -20 -16 -5 -25 8 -5 8 -11 0 -20 -8 -9 -8 -14 0
-17 7 -2 10 -17 8 -33 -3 -27 -4 -28 -20 -12 -25 25 -30 21 -26 -20 l3 -38
-53 0 c-51 0 -68 -10 -37 -21 8 -4 15 -12 15 -19 0 -25 -20 -27 -39 -3 -11 13
-23 20 -27 16 -4 -4 -2 -14 4 -21 16 -19 4 -28 -24 -21 -30 8 -30 -2 -1 -27
15 -12 17 -18 8 -19 -8 0 -23 8 -33 17 -15 14 -21 14 -27 4 -14 -22 -98 -3
-132 30 -17 16 -28 33 -24 38 10 17 14 100 5 106 -10 6 -7 81 3 91 3 3 -3 21
-14 40 -15 28 -17 39 -8 56 10 18 9 20 -5 15 -11 -4 -15 -3 -10 4 3 6 1 21 -6
34 -15 28 -6 59 15 51 8 -3 15 -1 15 4 0 6 7 10 15 10 8 0 15 9 15 19 0 10 6
21 14 24 19 7 27 57 10 57 -35 0 2 47 41 53 17 2 33 5 38 6 4 0 6 -5 5 -11z
m-2380 -260 c-1 -29 -6 -59 -11 -65 -6 -9 -5 -18 2 -27 9 -11 8 -15 -6 -20
-14 -6 -15 -9 -3 -16 10 -6 11 -14 4 -32 -13 -30 -6 -61 12 -54 18 7 19 -36 2
-67 -10 -19 -9 -21 4 -9 10 8 19 9 22 3 11 -17 117 -52 130 -42 17 14 80 25
72 13 -3 -6 0 -13 6 -15 8 -4 4 -8 -9 -12 -25 -8 -31 -25 -9 -25 8 0 23 -11
34 -25 11 -14 25 -25 31 -25 13 0 13 -3 5 -24 -7 -18 -34 -10 -34 10 0 19 -17
18 -28 -3 -9 -14 -14 -12 -43 15 -19 18 -38 32 -42 32 -5 0 -22 14 -37 30 -15
17 -33 30 -39 30 -20 0 -12 -37 12 -53 31 -22 -1 -15 -40 9 -18 10 -33 25 -33
32 0 7 -4 10 -10 7 -6 -4 -4 -15 6 -30 17 -26 12 -61 -6 -50 -6 4 -8 10 -6 14
3 4 -6 43 -20 87 -23 69 -25 92 -22 179 4 77 10 110 27 143 12 23 24 42 26 42
3 0 4 -24 3 -52z m457 -180 c10 -18 29 -44 42 -57 16 -17 21 -31 18 -50 -5
-25 -5 -25 5 -3 5 13 15 20 21 16 7 -4 8 -9 1 -13 -14 -8 20 -49 36 -43 17 5
15 22 -3 22 -8 0 -15 7 -15 15 0 24 17 18 39 -14 19 -27 20 -31 5 -60 -17 -35
-62 -73 -75 -65 -5 3 -9 1 -9 -5 0 -5 -15 -11 -32 -13 -18 -2 -32 -8 -31 -14
1 -6 -11 -11 -27 -11 -16 0 -27 3 -25 7 2 3 0 12 -5 20 -7 12 -12 12 -22 2
-29 -29 -37 -5 -14 41 14 25 14 26 -4 17 -13 -7 -19 -6 -23 4 -3 7 -18 12 -35
11 -30 -2 -30 -1 -15 22 9 13 22 22 29 19 8 -3 14 1 14 10 0 8 -7 17 -15 20
-8 4 -15 17 -15 29 0 23 1 23 27 10 25 -13 28 -13 34 2 4 12 8 13 13 4 4 -6 3
-18 -4 -25 -8 -11 -5 -21 16 -42 l26 -29 18 23 c21 26 30 28 30 7 0 -8 2 -15
4 -15 2 0 12 -3 20 -6 12 -5 15 -2 10 12 -4 11 -14 27 -22 37 -14 16 -14 17 1
11 29 -11 34 26 6 50 -23 20 -59 69 -59 81 0 15 18 1 35 -27z m2189 -142 c20
8 66 -14 66 -31 0 -8 -4 -15 -9 -15 -16 0 -6 -28 19 -55 26 -28 22 -42 -8 -26
-33 17 -47 14 -29 -7 10 -10 17 -22 17 -25 0 -13 -30 -7 -56 9 -30 20 -46 10
-18 -11 11 -8 14 -15 7 -15 -7 0 -13 -7 -13 -15 0 -8 -7 -15 -15 -15 -20 0
-19 17 1 28 14 8 14 11 -7 26 l-24 17 23 19 c28 23 28 35 0 54 -27 19 -18 32
11 16 22 -11 41 -6 41 10 0 5 -11 12 -25 16 -24 6 -32 23 -18 38 4 3 11 0 15
-8 5 -8 14 -13 22 -10z m-6892 -518 c11 -13 22 -35 25 -50 3 -16 9 -28 14 -28
5 0 9 -9 9 -20 0 -21 31 -90 53 -118 35 -43 105 -106 130 -115 9 -3 17 -11 17
-17 0 -5 7 -10 15 -10 8 0 15 -4 15 -10 0 -5 6 -10 14 -10 8 0 28 -12 45 -27
16 -16 47 -37 68 -48 21 -11 40 -22 43 -25 9 -10 104 -39 149 -45 55 -9 167 3
184 19 12 12 52 15 62 4 3 -3 -16 -11 -42 -18 -26 -7 -52 -17 -57 -21 -13 -11
-149 -12 -161 -1 -6 5 -30 14 -55 21 -57 17 -130 49 -147 67 -8 7 -32 19 -54
26 -23 6 -43 17 -46 24 -3 7 -19 16 -36 20 -61 13 -217 145 -217 184 0 5 -4
10 -9 10 -5 0 -16 30 -26 68 -9 37 -21 75 -26 84 -13 24 -11 58 2 58 7 0 20
-10 31 -22z m2972 -817 c-5 -5 -33 -21 -61 -36 -29 -15 -53 -30 -53 -34 0 -4
-26 -16 -57 -26 -62 -19 -175 -22 -228 -7 l-30 9 30 13 c17 7 63 14 104 16 41
2 77 7 80 12 3 5 34 17 69 27 34 10 62 22 62 26 0 7 80 17 89 11 3 -1 0 -6 -5
-11z"/>
<path d="M6872 6443 c2 -12 -4 -18 -17 -18 -13 0 -19 -7 -19 -18 1 -13 -6 -17
-37 -17 -33 0 -41 -4 -50 -26 -5 -15 -7 -30 -3 -33 4 -3 9 0 11 7 3 6 15 12
28 12 13 0 27 5 30 10 3 6 11 10 18 10 6 0 3 -6 -7 -13 -12 -9 -17 -23 -14
-47 l4 -35 13 28 c10 18 22 27 38 27 12 0 23 -4 23 -10 0 -5 -9 -10 -20 -10
-11 0 -20 -4 -20 -8 0 -4 18 -8 40 -7 29 0 39 4 35 13 -3 7 -1 11 4 7 5 -3 24
-7 43 -9 24 -3 36 1 46 15 7 10 20 19 29 19 11 0 9 -5 -8 -19 -22 -18 -22 -20
-6 -26 9 -4 33 0 53 10 34 16 36 16 48 -1 9 -12 15 -14 20 -5 4 6 0 14 -8 17
-9 3 -16 12 -16 19 0 7 7 16 16 19 8 3 12 10 9 16 -3 6 -17 -1 -31 -15 -14
-14 -30 -22 -36 -19 -6 4 1 16 18 29 17 13 23 24 16 28 -6 4 -17 0 -26 -9 -9
-8 -20 -12 -26 -9 -15 10 -12 35 5 35 8 0 15 5 15 10 0 6 -9 10 -20 10 -11 0
-20 -7 -20 -15 0 -19 -14 -19 -30 0 -9 11 -23 13 -52 8 -38 -6 -40 -5 -33 16
7 23 -10 30 -19 6 -3 -8 -12 -12 -21 -9 -8 3 -12 10 -9 15 3 5 0 9 -6 9 -6 0
-10 -8 -8 -17z"/>
<path d="M6105 6282 c-27 -14 -65 -40 -83 -56 -18 -17 -40 -31 -48 -32 -23 -3
-58 -54 -38 -54 3 0 14 10 25 23 10 12 18 17 19 11 0 -6 -14 -26 -30 -44 -19
-22 -28 -40 -24 -52 4 -13 -2 -21 -19 -27 -32 -12 -41 -27 -21 -35 8 -3 13 -2
10 3 -3 5 1 12 10 15 13 5 15 1 10 -19 -8 -30 17 -35 46 -8 16 14 23 15 38 5
27 -17 32 -15 25 8 -6 18 0 24 34 37 44 17 54 33 21 33 -10 0 -23 -8 -29 -17
-5 -10 -13 -15 -17 -10 -4 4 -1 15 7 24 28 36 39 61 27 65 -6 2 -9 12 -5 21 4
10 12 14 22 11 8 -3 23 -3 32 0 15 6 15 8 3 16 -19 12 -80 2 -102 -18 -10 -8
-18 -10 -18 -5 0 16 68 67 101 76 36 10 89 58 62 56 -5 0 -30 -12 -58 -27z"/>
<path d="M5883 6145 c-3 -9 -19 -23 -35 -31 -16 -8 -26 -20 -22 -26 4 -6 3 -8
-4 -4 -6 3 -20 -6 -31 -20 -11 -14 -26 -24 -33 -21 -8 3 1 17 25 41 21 20 33
36 27 36 -6 0 -34 -25 -63 -56 -28 -31 -69 -63 -89 -71 -41 -16 -53 -39 -15
-27 24 7 52 28 78 59 10 11 21 16 25 12 5 -4 -3 -18 -17 -30 -31 -27 -62 -74
-51 -80 4 -3 18 0 32 5 19 7 21 11 11 18 -12 7 -12 11 1 23 10 11 19 12 26 5
6 -6 12 -6 16 1 4 6 12 11 17 11 6 0 7 -4 4 -10 -3 -5 -2 -10 4 -10 15 0 23
18 11 25 -14 8 6 35 26 35 13 0 40 38 36 52 -1 4 12 19 28 35 17 15 30 31 30
35 0 15 -31 8 -37 -7z"/>
<path d="M5709 5865 c-26 -20 -52 -50 -59 -68 -8 -17 -26 -44 -42 -59 -30 -29
-36 -43 -14 -35 21 8 37 -36 25 -75 -5 -18 -9 -33 -9 -34 0 -1 10 -1 21 0 12
0 27 10 33 20 6 11 22 30 36 42 l25 22 -28 -5 c-19 -4 -34 -17 -47 -42 -24
-45 -25 -19 -2 29 11 21 25 34 35 34 9 -1 17 2 17 7 0 5 6 9 14 9 11 0 46 50
46 66 0 2 -20 -10 -44 -26 -51 -35 -52 -35 -60 -15 -9 23 12 71 26 57 8 -8 19
-5 42 11 17 12 32 23 34 23 2 1 -2 11 -9 22 -10 17 -10 23 0 36 20 23 11 19
-40 -19z"/>
<path d="M7407 5703 c-13 -12 -7 -53 7 -53 8 0 18 -9 21 -21 8 -24 -19 -59
-45 -59 -22 0 -33 -23 -35 -71 -1 -25 3 -35 11 -32 23 8 24 -15 2 -42 -21 -27
-21 -28 -3 -41 10 -8 15 -14 11 -14 -5 0 -1 -11 7 -24 12 -18 13 -26 4 -35 -9
-9 -7 -11 8 -5 66 25 107 64 66 64 -11 0 -23 5 -26 10 -3 6 -17 10 -31 10 -14
0 -23 4 -20 9 3 5 15 7 25 4 22 -6 49 31 31 42 -16 10 -12 38 5 31 18 -7 20 5
3 23 -11 10 -7 12 20 8 23 -4 32 -1 32 9 0 8 7 14 15 14 8 0 15 5 15 10 0 6
-4 10 -9 10 -6 0 -13 -4 -16 -10 -11 -18 -35 -10 -35 11 0 16 5 20 20 16 30
-8 24 9 -10 30 -17 10 -28 23 -26 29 3 7 -5 23 -18 37 -12 13 -20 29 -18 35 4
13 -1 16 -11 5z"/>
<path d="M5258 5278 c-18 -52 -4 -132 17 -98 7 12 25 13 25 2 0 -5 -8 -17 -18
-28 -22 -23 -24 -64 -3 -64 11 0 8 -5 -7 -16 -13 -9 -21 -22 -19 -28 3 -7 1
-19 -4 -27 -9 -15 -13 8 -11 66 2 28 1 28 -8 8 -12 -29 -28 -29 -39 -1 -6 18
-9 19 -14 5 -4 -10 -3 -17 1 -17 4 0 8 -11 8 -25 1 -14 -2 -25 -6 -25 -5 0
-16 -3 -24 -6 -12 -4 -15 -2 -10 9 3 8 1 18 -5 21 -7 5 -7 15 -1 32 15 38 11
53 -5 23 -8 -14 -12 -39 -11 -55 2 -16 -1 -38 -6 -49 -9 -16 -8 -18 3 -7 20
19 31 14 19 -9 -14 -25 -7 -35 11 -17 17 16 59 23 59 9 0 -5 -6 -12 -12 -15
-9 -4 -8 -5 2 -5 35 3 40 -2 40 -36 0 -19 -4 -35 -9 -35 -5 0 -14 -13 -19 -30
-8 -21 -15 -28 -27 -24 -8 4 -21 1 -29 -5 -19 -16 -27 -2 -20 38 7 33 6 35 -9
22 -17 -14 -16 -29 5 -98 11 -37 33 -43 43 -13 3 11 11 20 16 20 12 0 12 -27
-1 -35 -5 -3 -7 -12 -3 -20 4 -11 1 -13 -12 -9 -13 5 -16 2 -13 -16 5 -36 23
-34 37 5 7 20 21 41 32 48 25 16 25 31 -1 17 -20 -11 -27 -2 -11 16 5 5 14 26
20 46 7 21 21 40 32 43 28 9 44 44 24 51 -8 3 -15 15 -15 26 0 12 -4 17 -12
12 -8 -5 -9 -2 -5 10 4 10 7 22 7 27 0 5 11 9 24 9 24 0 44 36 24 42 -7 3 -6
12 3 26 19 30 29 28 29 -7 0 -20 6 -30 19 -34 16 -4 19 -12 16 -38 -3 -18 -9
-37 -15 -43 -16 -16 -12 -26 11 -26 19 0 21 4 16 30 -5 24 -2 33 18 46 31 20
32 41 3 40 -18 -1 -22 4 -21 21 2 16 -2 21 -11 17 -21 -8 -41 33 -26 52 7 7
10 21 6 30 -3 8 -2 24 4 33 5 10 6 21 3 25 -10 10 -33 -15 -33 -37 0 -27 -30
-107 -40 -107 -13 0 -22 34 -10 38 13 5 40 56 40 78 0 16 -2 16 -45 -2 -7 -3
-9 11 -7 36 4 37 -10 56 -20 28z"/>
<path d="M7580 5174 c0 -17 -7 -37 -15 -44 -14 -11 -13 -17 5 -47 24 -42 26
-61 4 -42 -15 12 -16 10 -10 -19 8 -35 -3 -42 -28 -17 -13 13 -17 12 -35 -11
-12 -15 -21 -33 -21 -40 0 -19 26 -18 34 2 3 8 10 12 16 9 6 -4 3 -16 -8 -33
-11 -17 -12 -23 -3 -18 18 11 32 -12 25 -41 -5 -19 -2 -22 19 -20 14 1 35 12
46 24 28 30 26 37 -4 17 -30 -20 -34 -3 -5 24 18 17 19 20 4 38 -11 14 -14 15
-11 3 7 -22 -8 -43 -26 -36 -20 8 -12 39 19 68 13 12 24 33 24 46 0 13 4 22 9
19 5 -3 12 1 15 10 11 27 7 37 -9 24 -21 -17 -29 -7 -16 18 15 28 14 32 -5 25
-13 -5 -15 -2 -10 15 4 12 3 30 -3 39 -9 15 -10 13 -11 -13z"/>
<path d="M5482 5108 c-7 -7 -12 -27 -12 -46 0 -25 -5 -35 -20 -39 -20 -5 -24
-13 -21 -45 1 -9 -7 -21 -17 -27 -20 -11 -36 -71 -19 -71 5 0 4 -7 -3 -15 -20
-25 -43 -19 -36 9 4 15 0 28 -9 36 -15 12 -21 3 -16 -24 1 -5 -5 -6 -14 -3
-18 7 -45 -1 -45 -14 0 -4 7 -6 15 -3 9 4 15 0 15 -10 0 -9 -6 -16 -14 -16 -8
0 -17 -14 -21 -31 -4 -17 -13 -42 -21 -57 -8 -15 -14 -33 -14 -40 0 -7 -8 -25
-17 -39 -17 -26 -17 -27 0 -20 13 5 17 1 17 -13 0 -13 -7 -20 -20 -20 -23 0
-27 -29 -8 -48 9 -9 9 -12 0 -12 -7 0 -12 -5 -12 -11 0 -21 21 3 37 42 8 21
19 39 23 39 4 0 10 9 13 20 3 11 11 20 17 20 7 0 10 -6 7 -14 -10 -25 6 -27
31 -4 l25 23 -7 -27 c-5 -22 -3 -26 9 -22 8 4 15 1 15 -5 0 -6 -8 -11 -18 -11
-10 0 -23 -5 -28 -10 -8 -8 -15 -6 -24 5 -20 24 -37 18 -51 -17 -7 -18 -14
-36 -17 -40 -8 -17 61 -7 74 10 12 15 15 15 24 2 8 -12 10 -10 10 11 0 18 6
28 19 32 24 6 31 0 31 -28 0 -15 -11 -27 -39 -41 -25 -12 -35 -22 -28 -26 24
-15 48 -8 58 19 18 48 29 12 14 -47 -16 -62 -14 -72 10 -36 22 33 37 34 25 0
-13 -34 -14 -34 15 -21 27 12 32 51 8 53 -7 1 -17 2 -23 3 -5 0 -10 20 -10 44
0 24 -5 48 -11 54 -7 7 -6 15 5 26 20 20 21 33 1 17 -9 -7 -19 -10 -22 -6 -10
9 12 42 26 38 6 -1 11 2 11 8 0 6 -7 10 -17 10 -15 0 -15 2 1 19 11 12 15 25
10 33 -4 7 -7 25 -6 40 1 14 -2 29 -8 33 -15 9 -12 25 5 25 15 0 19 -14 17
-60 l-1 -25 11 23 c6 12 15 22 21 22 5 0 6 7 3 16 -4 9 -2 22 4 29 13 16 -7
55 -27 55 -16 0 -17 27 -1 32 7 3 12 21 12 41 0 20 4 37 8 37 4 0 8 -4 8 -9 0
-15 70 -35 82 -23 6 6 1 12 -16 16 -24 6 -37 26 -17 26 18 0 22 55 6 88 -19
37 -17 36 -33 20z"/>
<path d="M5555 4940 c-11 -12 -25 -18 -36 -15 -22 7 -36 -15 -18 -29 15 -12
24 -86 11 -86 -5 0 -13 5 -19 11 -7 7 -12 4 -16 -10 -3 -12 -1 -21 4 -21 6 0
-2 -15 -16 -34 -34 -44 -43 -97 -21 -119 11 -10 14 -25 10 -40 -8 -35 12 -42
32 -12 15 23 15 27 1 43 -15 16 -15 20 -2 39 14 20 21 55 15 78 -4 19 12 55
26 55 10 0 12 -8 8 -30 -8 -37 2 -38 39 -2 l29 27 -4 -37 c-2 -21 0 -38 4 -38
4 0 8 -7 8 -15 0 -8 -7 -15 -15 -15 -8 0 -15 9 -15 20 0 25 -15 26 -24 3 -6
-15 -8 -15 -17 -3 -8 13 -10 13 -19 0 -14 -21 -12 -30 5 -30 9 0 27 -8 42 -17
14 -9 33 -18 42 -19 9 -1 24 -5 34 -9 13 -5 17 -2 17 13 0 24 -16 38 -23 20
-2 -7 -4 -1 -4 15 0 15 2 27 6 27 16 -1 32 -19 34 -38 1 -12 7 -22 14 -22 15
0 14 -1 17 58 2 50 -6 67 -29 58 -19 -7 -44 14 -48 41 -1 10 -6 24 -10 31 -5
6 -5 17 -2 22 3 6 2 10 -4 10 -15 0 -26 -22 -22 -47 3 -25 -8 -30 -27 -11 -18
18 -14 49 8 55 16 4 18 12 15 45 -5 50 -8 53 -30 28z"/>
<path d="M5840 4840 c0 -6 -6 -10 -12 -9 -28 3 -38 -2 -38 -21 0 -25 5 -25 42
1 31 23 63 14 34 -10 -7 -6 -12 -21 -9 -31 6 -23 14 -25 31 -8 17 17 15 29 -3
22 -8 -4 -15 -2 -15 4 0 15 22 21 43 10 18 -9 24 -38 6 -38 -5 0 -7 -5 -4 -11
4 -6 13 -8 21 -5 14 5 20 -15 7 -28 -4 -3 -7 -21 -7 -38 -1 -27 -6 -33 -34
-40 -28 -7 -37 -6 -48 9 -7 10 -11 26 -8 36 7 23 -5 97 -16 97 -16 0 -40 -31
-40 -52 0 -12 -7 -29 -16 -39 -10 -11 -16 -40 -17 -90 -2 -78 9 -98 31 -58
l14 24 -6 -27 c-5 -22 -1 -31 19 -44 14 -9 32 -14 40 -10 9 3 14 2 11 -3 -8
-12 21 -34 34 -26 8 5 7 11 -2 22 -13 16 -12 53 1 63 3 3 12 18 20 35 11 26
14 28 23 12 5 -10 8 -24 5 -31 -7 -19 26 -17 53 4 21 16 22 20 10 35 -12 15
-15 14 -26 -7 -13 -23 -13 -23 -14 -2 0 12 -7 24 -15 28 -8 3 -15 10 -15 16 0
10 64 42 89 44 32 2 20 25 -19 37 -28 9 -46 22 -56 40 -19 38 -18 43 10 59 15
7 22 18 19 27 -4 10 -8 11 -13 3 -3 -6 -14 -8 -23 -4 -9 3 -17 1 -17 -4 0 -15
-42 -11 -58 5 -16 16 -32 17 -32 3z"/>
<path d="M6472 4670 c-8 -16 -11 -34 -7 -40 3 -5 -1 -10 -9 -10 -26 0 -18 -39
14 -70 35 -35 32 -50 -11 -50 -26 0 -29 2 -19 19 7 13 7 22 0 26 -18 11 -29
-5 -24 -34 6 -30 -12 -53 -22 -27 -3 8 -12 12 -20 9 -8 -3 -14 0 -14 7 0 6 -4
8 -10 5 -5 -3 -10 -15 -10 -27 0 -17 4 -19 26 -14 21 6 25 4 21 -8 -5 -12 0
-16 18 -16 15 0 25 6 25 14 0 9 7 12 19 9 10 -3 28 0 39 6 15 8 21 8 24 0 5
-14 68 -22 68 -9 0 6 -4 10 -10 10 -5 0 -10 9 -10 20 0 11 -5 20 -11 20 -6 0
-8 -9 -4 -20 5 -15 3 -18 -9 -14 -9 3 -16 14 -16 24 0 11 -5 22 -11 25 -7 5
-4 14 8 27 17 19 17 20 -5 38 -26 21 -28 30 -7 30 8 0 15 7 15 15 0 8 -4 15
-9 15 -5 0 -13 11 -18 25 l-8 25 -13 -30z"/>
<path d="M5576 4597 c-3 -11 -3 -34 0 -51 2 -17 2 -25 -2 -18 -3 6 -13 12 -21
12 -12 0 -14 -8 -9 -39 3 -23 2 -42 -4 -46 -5 -3 -10 -11 -10 -17 0 -6 6 -6
15 2 13 11 19 10 35 -7 19 -21 19 -21 0 -38 -26 -24 -15 -39 14 -20 12 8 25
14 27 13 2 -2 1 1 -3 7 -12 14 -9 25 7 25 8 0 17 -14 21 -35 6 -34 26 -46 39
-24 9 14 -15 70 -27 63 -5 -3 -8 5 -7 18 5 56 -1 80 -21 85 -20 5 -20 6 -3 22
23 21 73 24 73 5 0 -8 7 -14 15 -14 17 0 20 27 5 50 -7 12 -12 11 -30 -5 -18
-16 -23 -17 -30 -5 -6 9 -6 16 0 18 25 9 6 19 -34 19 -36 0 -45 -4 -50 -20z"/>
<path d="M5899 4438 c-12 -52 -7 -70 27 -108 20 -22 43 -40 50 -40 24 0 28 30
8 45 -11 7 -15 17 -11 21 4 5 12 2 16 -5 7 -10 10 -10 16 -1 4 7 1 16 -6 21
-8 5 -9 9 -4 9 6 0 16 -4 24 -9 12 -8 12 -16 1 -55 -14 -50 -70 -109 -93 -100
-15 5 -44 -23 -34 -33 4 -3 14 0 23 8 13 11 18 11 21 2 6 -18 23 -16 23 2 0 8
7 15 15 15 8 0 15 -5 15 -10 0 -13 31 -9 45 5 27 27 55 76 50 85 -3 6 0 10 7
10 8 0 7 5 -4 17 -14 13 -20 14 -33 3 -12 -10 -13 -16 -4 -27 13 -15 6 -28
-10 -18 -18 11 -12 39 14 64 18 17 24 30 19 45 -9 31 -13 32 -30 10 -11 -13
-17 -15 -20 -6 -3 6 -12 12 -19 12 -8 0 -18 6 -22 14 -7 11 -82 33 -84 24z"/>
</g>
</svg>
